<svg xmlns="http://www.w3.org/2000/svg" xmlns:xlink="http://www.w3.org/1999/xlink" viewBox="0 0 11.24 11.68"><defs><style>.cls-1{fill:none;}.cls-2{isolation:isolate;}.cls-3{clip-path:url(#clip-path);}.cls-4{fill:#d1d1d1;}.cls-5{clip-path:url(#clip-path-2);}.cls-6{fill:#9e9e9e;}.cls-7{fill:#a5a5a5;}</style><clipPath id="clip-path"><path class="cls-1" d="M4.79,0,8.22,1.23c1,1.73,2,3.45,3,5.18L7.8,5.17Q6.3,2.58,4.79,0Z"/></clipPath><clipPath id="clip-path-2"><path class="cls-1" d="M7.8,5.17l3.44,1.24L6.43,11.68,3,10.45C4.6,8.69,6.2,6.94,7.8,5.17Z"/></clipPath></defs><title>poker_d2</title><g id="Layer_2" data-name="Layer 2"><g id="Layer_1-2" data-name="Layer 1"><g class="cls-2"><g class="cls-2"><g class="cls-3"><g class="cls-2"><path class="cls-4" d="M4.79,0,8.22,1.23c1,1.73,2,3.45,3,5.18L7.8,5.17Q6.3,2.58,4.79,0"/></g></g></g><g class="cls-2"><g class="cls-5"><g class="cls-2"><path class="cls-6" d="M7.8,5.17l3.44,1.24L6.43,11.68,3,10.45C4.6,8.69,6.2,6.94,7.8,5.17"/></g></g></g><path class="cls-7" d="M4.79,0q1.51,2.58,3,5.17C6.2,6.94,4.6,8.69,3,10.45L0,5.31Z"/></g></g></g></svg>