<svg xmlns="http://www.w3.org/2000/svg" xmlns:xlink="http://www.w3.org/1999/xlink" viewBox="0 0 10.1 10.93"><defs><style>.cls-1{fill:none;}.cls-2{isolation:isolate;}.cls-3{clip-path:url(#clip-path);}.cls-4{fill:#999;}.cls-5{fill:#9e9e9e;}.cls-6{fill:#a3a3a3;}.cls-7{fill:#a8a8a8;}.cls-8{fill:#adadad;}.cls-9{fill:#b3b3b3;}.cls-10{fill:#b8b8b8;}.cls-11{fill:#bdbdbd;}.cls-12{fill:#c2c2c2;}.cls-13{fill:#c7c7c7;}.cls-14{fill:#ccc;}.cls-15{fill:#d1d1d1;}.cls-16{fill:#d6d6d6;}.cls-17{fill:#dbdbdb;}.cls-18{fill:#e0e0e0;}.cls-19{fill:#e6e6e6;}.cls-20{fill:#ebebeb;}.cls-21{clip-path:url(#clip-path-2);}.cls-22{fill:#858585;}.cls-23{clip-path:url(#clip-path-3);}.cls-24{fill:#f0f0f0;}.cls-25{fill:#949494;}.cls-26{fill:#8f8f8f;}.cls-27{fill:#8a8a8a;}.cls-28{fill:#a5a5a5;}</style><clipPath id="clip-path"><path class="cls-1" d="M2.69.08,6.13,1.32c.48.17.77.75.85,1.75L3.54,1.83C3.46.84,3.17.26,2.69.08Z"/></clipPath><clipPath id="clip-path-2"><path class="cls-1" d="M5.6,10.93,2.17,9.69h0l3.44,1.23Z"/></clipPath><clipPath id="clip-path-3"><path class="cls-1" d="M5.66.05,9.09,1.29a1.32,1.32,0,0,1,.72.7A3.12,3.12,0,0,1,10,4,9.59,9.59,0,0,1,8.12,7.94a15.67,15.67,0,0,1-2.5,3L2.18,9.7a15.64,15.64,0,0,0,2.5-3A9.52,9.52,0,0,0,6.6,2.79a3.11,3.11,0,0,0-.23-2A1.36,1.36,0,0,0,5.66.05Z"/></clipPath></defs><title>poker_h2</title><g id="Layer_2" data-name="Layer 2"><g id="Layer_1-2" data-name="Layer 1"><g class="cls-2"><g class="cls-2"><g class="cls-3"><g class="cls-2"><polyline class="cls-4" points="2.69 0.08 6.13 1.32 6.13 1.32 2.69 0.08 2.69 0.08"/><path class="cls-5" d="M2.69.08,6.13,1.32l.06,0L2.75.11l-.06,0"/><path class="cls-6" d="M2.75.11,6.19,1.34l.06,0L2.81.14l-.06,0"/><path class="cls-7" d="M2.81.14,6.25,1.37l0,0L2.87.17l-.06,0"/><path class="cls-8" d="M2.87.17,6.3,1.4l0,0L2.92.2l0,0"/><path class="cls-9" d="M2.92.2,6.35,1.44a.1.1,0,0,1,.05,0L3,.24l0,0"/><path class="cls-10" d="M3,.24,6.4,1.48l0,0L3,.28l0,0"/><path class="cls-11" d="M3,.28,6.45,1.52l0,.05L3.06.33,3,.28"/><path class="cls-12" d="M3.06.33,6.49,1.57l0,.05L3.1.38l0,0"/><path class="cls-13" d="M3.1.38,6.54,1.62l0,.06L3.15.44l0-.06"/><path class="cls-14" d="M3.15.44,6.58,1.68l0,.07L3.19.51a.43.43,0,0,1,0-.07"/><path class="cls-15" d="M3.19.51,6.63,1.75a.59.59,0,0,1,0,.08L3.24.59,3.19.51"/><path class="cls-16" d="M3.24.59,6.67,1.83a.41.41,0,0,1,0,.09L3.29.69a.47.47,0,0,1,0-.1"/><path class="cls-17" d="M3.29.69,6.72,1.92a.69.69,0,0,1,0,.13L3.34.81a.61.61,0,0,1,0-.12"/><path class="cls-18" d="M3.34.81,6.77,2.05l.06.17L3.39,1A1.09,1.09,0,0,0,3.34.81"/><path class="cls-19" d="M3.39,1,6.83,2.22a2,2,0,0,1,.07.26L3.46,1.25A2.13,2.13,0,0,0,3.39,1"/><path class="cls-20" d="M3.46,1.25,6.9,2.48c0,.18.06.37.08.59L3.54,1.83a4.52,4.52,0,0,0-.08-.58"/></g></g></g><g class="cls-2"><g class="cls-21"><g class="cls-2"><path class="cls-22" d="M2.18,9.7l3.44,1.23h0L2.17,9.69h0"/></g></g></g><g class="cls-2"><g class="cls-23"><g class="cls-2"><polyline class="cls-4" points="5.66 0.05 9.09 1.29 9.1 1.29 5.66 0.05 5.66 0.05"/><path class="cls-5" d="M5.66.05,9.09,1.29l.08,0L5.73.09l-.07,0"/><path class="cls-6" d="M5.73.09,9.17,1.32l.07,0L5.8.12l-.07,0"/><path class="cls-7" d="M5.8.12,9.24,1.35l.06,0L5.87.16,5.8.12"/><path class="cls-8" d="M5.87.16,9.3,1.39l.07,0L5.93.2l-.06,0"/><path class="cls-9" d="M5.93.2,9.37,1.43l.05.05L6,.25,5.93.2"/><path class="cls-10" d="M6,.25,9.42,1.48l.06.06L6.05.3,6,.25"/><path class="cls-11" d="M6.05.3,9.48,1.54l.06.06L6.11.36,6.05.3"/><path class="cls-12" d="M6.11.36,9.54,1.6l.06.07L6.16.43l0-.07"/><path class="cls-13" d="M6.16.43,9.6,1.67l.06.08L6.23.51,6.16.43"/><path class="cls-14" d="M6.23.51,9.66,1.75l.07.09L6.29.61,6.23.51"/><path class="cls-15" d="M6.29.61,9.73,1.84s0,.09.07.13L6.36.74A.54.54,0,0,0,6.29.61"/><path class="cls-16" d="M6.36.74,9.8,2V2l.06.12L6.43.87,6.37.76v0"/><path class="cls-17" d="M6.43.87,9.87,2.11l.06.14L6.49,1,6.43.87"/><path class="cls-18" d="M6.49,1,9.93,2.25a.84.84,0,0,1,.05.17L6.55,1.18,6.49,1"/><path class="cls-19" d="M6.55,1.18,10,2.42a1.41,1.41,0,0,1,.06.22L6.6,1.4a2.25,2.25,0,0,0,0-.22"/><path class="cls-20" d="M6.6,1.4,10,2.64a2.7,2.7,0,0,1,.06.41L6.66,1.81A2.9,2.9,0,0,0,6.6,1.4"/><path class="cls-24" d="M6.66,1.81,10.1,3.05a2.94,2.94,0,0,1,0,.42L6.66,2.23a2.94,2.94,0,0,0,0-.42"/><path class="cls-20" d="M6.66,2.23,10.1,3.47a4.45,4.45,0,0,1,0,.5L6.61,2.74a3.14,3.14,0,0,0,0-.51"/><path class="cls-19" d="M6.61,2.74,10.05,4V4c0,.09,0,.18,0,.27L6.55,3.05c0-.09,0-.18,0-.26v0"/><path class="cls-18" d="M6.55,3.05,10,4.29c0,.09-.05.18-.07.27L6.48,3.33c0-.1,0-.19.07-.28"/><path class="cls-17" d="M6.48,3.33,9.92,4.56c0,.08-.05.17-.08.26L6.4,3.58a2.41,2.41,0,0,0,.08-.25"/><path class="cls-16" d="M6.4,3.58,9.84,4.82c0,.08-.05.16-.09.25L6.32,3.83a2.41,2.41,0,0,0,.08-.25"/><path class="cls-15" d="M6.32,3.83,9.75,5.07l-.09.25L6.22,4.09c0-.09.07-.17.1-.26"/><path class="cls-14" d="M6.22,4.09,9.66,5.32l-.12.27L6.11,4.35c0-.09.07-.18.11-.26"/><path class="cls-13" d="M6.11,4.35,9.54,5.59c0,.09-.08.18-.13.27L6,4.63l.13-.28"/><path class="cls-12" d="M6,4.63,9.41,5.86a2.1,2.1,0,0,1-.15.3L5.83,4.93,6,4.63"/><path class="cls-11" d="M5.83,4.93,9.26,6.16a2.58,2.58,0,0,1-.18.32L5.65,5.25l.18-.32"/><path class="cls-10" d="M5.65,5.25,9.08,6.48a3.35,3.35,0,0,1-.21.36L5.43,5.61c.08-.12.15-.24.22-.36"/><path class="cls-9" d="M5.43,5.61,8.87,6.84l-.26.4L5.17,6l.26-.4"/><path class="cls-8" d="M5.17,6,8.61,7.24c-.1.16-.21.31-.32.46L4.85,6.47c.12-.16.22-.31.32-.46"/><path class="cls-7" d="M4.85,6.47,8.29,7.7l-.17.24c-.4.53-.75,1-1,1.37L3.63,8.08c.31-.39.65-.85,1-1.37l.17-.24"/><path class="cls-6" d="M3.63,8.08,7.07,9.31c-.3.39-.56.71-.77,1L2.87,9c.21-.25.46-.56.76-.95"/><path class="cls-5" d="M2.87,9,6.3,10.27c-.11.13-.2.24-.29.33L2.58,9.36,2.87,9"/><path class="cls-4" d="M2.58,9.36,6,10.6l-.14.15L2.43,9.52l.15-.16"/><path class="cls-25" d="M2.43,9.52l3.44,1.23-.09.08L2.35,9.59l.08-.07"/><path class="cls-26" d="M2.35,9.59l3.43,1.24,0,0L2.29,9.64l.06-.05"/><path class="cls-27" d="M2.29,9.64l3.44,1.23,0,0L2.25,9.67l0,0"/><path class="cls-22" d="M2.25,9.67,5.69,10.9l-.07,0L2.18,9.7l.07,0"/></g></g></g><path class="cls-28" d="M2.33,0C3,0,3.44.62,3.54,1.83,4,.62,4.62,0,5.32,0h.15a1.24,1.24,0,0,1,.9.75,3.11,3.11,0,0,1,.23,2A9.52,9.52,0,0,1,4.68,6.71a15.64,15.64,0,0,1-2.5,3c-.2,0-.72-1-1.52-2.94A7,7,0,0,1,.08,2.87,4.12,4.12,0,0,1,1,.84,2.14,2.14,0,0,1,2.17.05Z"/></g></g></g></svg>