<svg xmlns="http://www.w3.org/2000/svg" xmlns:xlink="http://www.w3.org/1999/xlink" viewBox="0 0 10 11.88"><defs><style>.cls-1{fill:none;}.cls-2{isolation:isolate;}.cls-3{clip-path:url(#clip-path);}.cls-4{fill:#858585;}.cls-5{clip-path:url(#clip-path-2);}.cls-6{fill:#dbdbdb;}.cls-7{fill:#e0e0e0;}.cls-8{fill:#e6e6e6;}.cls-9{fill:#f3f3f3;}.cls-10{clip-path:url(#clip-path-3);}.cls-11{fill:#d1d1d1;}.cls-12{fill:#ccc;}.cls-13{fill:#c7c7c7;}.cls-14{fill:#c2c2c2;}.cls-15{fill:#bdbdbd;}.cls-16{fill:#b8b8b8;}.cls-17{fill:#b3b3b3;}.cls-18{fill:#adadad;}.cls-19{fill:#a8a8a8;}.cls-20{fill:#a3a3a3;}.cls-21{fill:#9e9e9e;}.cls-22{fill:#999;}.cls-23{fill:#949494;}.cls-24{fill:#8f8f8f;}.cls-25{fill:#8a8a8a;}.cls-26{clip-path:url(#clip-path-4);}.cls-27{fill:#d6d6d6;}.cls-28{fill:#aeaeae;}</style><clipPath id="clip-path"><path class="cls-1" d="M5.06,8.8,2.68,9.88a2.22,2.22,0,0,0,.56-.38L5.62,8.42A2.14,2.14,0,0,1,5.06,8.8Z"/></clipPath><clipPath id="clip-path-2"><path class="cls-1" d="M4.9,9.36,7.28,8.28a5.13,5.13,0,0,0,.93,1.82L5.83,11.18A5.13,5.13,0,0,1,4.9,9.36Z"/></clipPath><clipPath id="clip-path-3"><path class="cls-1" d="M8.18,10.54,5.81,11.62A.2.2,0,0,0,6,11.38L8.32,10.3C8.34,10.41,8.31,10.48,8.18,10.54Z"/></clipPath><clipPath id="clip-path-4"><path class="cls-1" d="M9.11,8.47,6.73,9.55a1.43,1.43,0,0,0,.55-.44,1.76,1.76,0,0,0,.31-1.45c-.25-1.43-2-3.38-3.76-5.26C3.1,1.6,2.71,1.16,2.6,1.08L5,0c.11.08.5.53,1.22,1.32C7.93,3.2,9.71,5.16,10,6.58A1.79,1.79,0,0,1,9.66,8,1.43,1.43,0,0,1,9.11,8.47Z"/></clipPath></defs><title>c</title><g id="Layer_2" data-name="Layer 2"><g id="Layer_1-2" data-name="Layer 1"><g class="cls-2"><g class="cls-2"><g class="cls-3"><g class="cls-2"><path class="cls-4" d="M3.24,9.5,5.62,8.42a2.14,2.14,0,0,1-.56.38L2.68,9.88a2.22,2.22,0,0,0,.56-.38"/></g></g></g><g class="cls-2"><g class="cls-5"><g class="cls-2"><path class="cls-6" d="M4.9,9.36,7.28,8.28v.05L4.92,9.41l0-.05"/><path class="cls-7" d="M4.92,9.41,7.29,8.33c.11.31.22.6.34.86L5.25,10.27a7.73,7.73,0,0,1-.33-.86"/><path class="cls-8" d="M5.25,10.27,7.63,9.19a3.88,3.88,0,0,0,.54.86L5.79,11.13a4.28,4.28,0,0,1-.54-.86"/><path class="cls-7" d="M5.79,11.13l2.38-1.08,0,0L5.83,11.18l0,0"/></g></g></g><polygon class="cls-9" points="5.83 11.18 8.21 10.1 8.32 10.3 5.95 11.38 5.83 11.18"/><g class="cls-2"><g class="cls-10"><g class="cls-2"><path class="cls-11" d="M6,11.38,8.32,10.3v0L6,11.4v0"/><path class="cls-12" d="M6,11.4l2.37-1.08v0L6,11.42v0"/><path class="cls-13" d="M6,11.42l2.38-1.08h0L6,11.43H6"/><path class="cls-14" d="M6,11.43l2.38-1.08h0L6,11.44H6"/><polyline class="cls-15" points="5.95 11.44 8.33 10.36 8.33 10.37 5.95 11.45 5.95 11.44"/><polyline class="cls-16" points="5.95 11.45 8.33 10.37 8.33 10.38 5.95 11.46 5.95 11.45"/><polyline class="cls-17" points="5.95 11.46 8.33 10.38 8.32 10.39 5.95 11.47 5.95 11.46"/><polyline class="cls-18" points="5.95 11.47 8.32 10.39 8.32 10.4 5.95 11.48 5.95 11.47"/><polyline class="cls-19" points="5.95 11.48 8.32 10.4 8.32 10.41 5.94 11.49 5.95 11.48"/><polyline class="cls-20" points="5.94 11.49 8.32 10.41 8.32 10.42 5.94 11.5 5.94 11.49"/><polyline class="cls-21" points="5.94 11.5 8.32 10.42 8.32 10.43 5.94 11.5 5.94 11.5"/><polyline class="cls-22" points="5.94 11.5 8.32 10.43 8.31 10.43 5.93 11.51 5.94 11.5"/><polyline class="cls-23" points="5.93 11.51 8.31 10.43 8.31 10.44 5.93 11.52 5.93 11.51"/><polyline class="cls-24" points="5.93 11.52 8.31 10.44 8.3 10.46 5.92 11.53 5.93 11.52"/><path class="cls-25" d="M5.92,11.53,8.3,10.45v0L5.91,11.55v0"/><path class="cls-4" d="M5.91,11.55l2.38-1.08a.3.3,0,0,1-.11.07L5.81,11.62a.26.26,0,0,0,.1-.07"/></g></g></g><g class="cls-2"><g class="cls-26"><g class="cls-2"><path class="cls-27" d="M2.6,1.08,5,0H5L2.61,1.09h0"/><path class="cls-6" d="M2.61,1.09,5,0l0,0L2.67,1.14l-.06,0"/><path class="cls-7" d="M2.67,1.14,5,.06c.17.16.55.58,1.16,1.26s1.35,1.47,2,2.19L5.77,4.59C5.18,3.87,4.5,3.13,3.83,2.4s-1-1.1-1.16-1.26"/><path class="cls-8" d="M5.77,4.59,8.15,3.51A11.32,11.32,0,0,1,9.69,5.76L7.31,6.84A11.32,11.32,0,0,0,5.77,4.59"/><path class="cls-7" d="M7.31,6.84,9.69,5.76c.07.14.12.28.17.41L7.48,7.25a2.75,2.75,0,0,0-.17-.41"/><path class="cls-6" d="M7.48,7.25,9.86,6.17l.06.22L7.55,7.47c0-.07,0-.14-.07-.22"/><path class="cls-27" d="M7.55,7.47,9.92,6.39a.83.83,0,0,1,0,.15L7.58,7.62l0-.15"/><path class="cls-11" d="M7.58,7.62,10,6.54v0s0,.07,0,.1L7.6,7.76a.38.38,0,0,0,0-.1v0"/><path class="cls-12" d="M7.6,7.76,10,6.68c0,.05,0,.09,0,.13L7.62,7.89a.69.69,0,0,0,0-.13"/><path class="cls-13" d="M7.62,7.89,10,6.81v.11L7.63,8a.41.41,0,0,1,0-.11"/><path class="cls-14" d="M7.63,8,10,6.92V7L7.63,8.1V8"/><path class="cls-15" d="M7.63,8.1,10,7v.09L7.62,8.19s0-.06,0-.09"/><path class="cls-16" d="M7.62,8.19,10,7.11s0,.06,0,.09L7.61,8.28a.28.28,0,0,0,0-.09"/><path class="cls-17" d="M7.61,8.28,10,7.2s0,.06,0,.09L7.6,8.37a.28.28,0,0,0,0-.09"/><path class="cls-18" d="M7.6,8.37,10,7.29a.31.31,0,0,1,0,.08L7.59,8.45s0-.06,0-.08"/><path class="cls-19" d="M7.59,8.45,10,7.37a.19.19,0,0,1,0,.08L7.57,8.53a.31.31,0,0,1,0-.08"/><path class="cls-20" d="M7.57,8.53,9.94,7.45a.29.29,0,0,1,0,.09L7.54,8.62l0-.09"/><path class="cls-21" d="M7.54,8.62,9.92,7.54l0,.09L7.51,8.71l0-.09"/><path class="cls-22" d="M7.51,8.71,9.89,7.63l0,.09L7.47,8.8l0-.09"/><path class="cls-23" d="M7.47,8.8,9.85,7.72l0,.1L7.42,8.9l0-.1"/><path class="cls-24" d="M7.42,8.9,9.8,7.82l-.08.12L7.35,9l.07-.12"/><path class="cls-25" d="M7.35,9,9.72,7.94,9.66,8l0,.05L7.24,9.16l0-.05L7.35,9"/><path class="cls-4" d="M7.24,9.16,9.62,8.08a1.58,1.58,0,0,1-.51.39L6.73,9.55a1.58,1.58,0,0,0,.51-.39"/></g></g></g><path class="cls-28" d="M2.6,1.08c.11.08.5.52,1.23,1.32C5.56,4.28,7.34,6.23,7.59,7.66a1.76,1.76,0,0,1-.31,1.45,1.43,1.43,0,0,1-1,.57A2.31,2.31,0,0,1,4.9,9.36a5.13,5.13,0,0,0,.93,1.82l.12.2c0,.25-.17.33-1.38.43-1.43.13-1.59.08-1.63-.16l0-.22A5.19,5.19,0,0,0,3.24,9.5,1.94,1.94,0,0,1,2.06,10a2,2,0,0,1-2-1.74A4.64,4.64,0,0,1,.44,5.78C1.06,4.27,2.44,1.36,2.6,1.08Z"/></g></g></g></svg>