<svg xmlns="http://www.w3.org/2000/svg" xmlns:xlink="http://www.w3.org/1999/xlink" viewBox="0 0 10.48 10.95"><defs><style>.cls-1{fill:none;}.cls-2{isolation:isolate;}.cls-3{clip-path:url(#clip-path);}.cls-4{fill:#858585;}.cls-5{fill:#8a8a8a;}.cls-6{fill:#949494;}.cls-7{clip-path:url(#clip-path-2);}.cls-8{fill:#999;}.cls-9{fill:#9e9e9e;}.cls-10{fill:#a3a3a3;}.cls-11{fill:#a8a8a8;}.cls-12{fill:#adadad;}.cls-13{fill:#b3b3b3;}.cls-14{fill:#b8b8b8;}.cls-15{fill:#bdbdbd;}.cls-16{fill:#c2c2c2;}.cls-17{fill:#c7c7c7;}.cls-18{fill:#ccc;}.cls-19{fill:#d1d1d1;}.cls-20{fill:#d6d6d6;}.cls-21{fill:#dbdbdb;}.cls-22{fill:#e0e0e0;}.cls-23{fill:#e6e6e6;}.cls-24{clip-path:url(#clip-path-3);}.cls-25{fill:#8f8f8f;}.cls-26{fill:#a2a2a2;}.cls-27{clip-path:url(#clip-path-4);}.cls-28{fill:#aeaeae;}</style><clipPath id="clip-path"><path class="cls-1" d="M1.26,1.5,3.64.42A1.22,1.22,0,0,1,3.91.33L1.53,1.41A1.43,1.43,0,0,0,1.26,1.5Z"/></clipPath><clipPath id="clip-path-2"><path class="cls-1" d="M1.73,1.38,4.1.3C5,.23,5.69.78,6.29,2L3.91,3.05C3.32,1.86,2.59,1.31,1.73,1.38Z"/></clipPath><clipPath id="clip-path-3"><path class="cls-1" d="M4.9,1.2,7.28.12A1.71,1.71,0,0,1,7.75,0L5.38,1.08A1.41,1.41,0,0,0,4.9,1.2Z"/></clipPath><clipPath id="clip-path-4"><path class="cls-1" d="M7.71,9.87,5.33,10.94A12.22,12.22,0,0,0,7.19,7.78,6.66,6.66,0,0,0,8,3.72,3.42,3.42,0,0,0,7,1.74a2.27,2.27,0,0,0-1.4-.66L7.94,0A2.32,2.32,0,0,1,9.35.66a3.38,3.38,0,0,1,1.06,2A6.58,6.58,0,0,1,9.57,6.7,12.74,12.74,0,0,1,7.71,9.87Z"/></clipPath></defs><title>h</title><g id="Layer_2" data-name="Layer 2"><g id="Layer_1-2" data-name="Layer 1"><g class="cls-2"><g class="cls-2"><g class="cls-3"><g class="cls-2"><path class="cls-4" d="M1.26,1.5,3.64.42l.11,0L1.38,1.45l-.12.05"/><path class="cls-5" d="M1.38,1.45,3.75.38l.16,0L1.53,1.41l-.15,0"/></g></g></g><polygon class="cls-6" points="1.53 1.41 3.91 0.33 4.1 0.3 1.73 1.38 1.53 1.41"/><g class="cls-2"><g class="cls-7"><g class="cls-2"><path class="cls-6" d="M1.73,1.38,4.1.3h0L1.76,1.38h0"/><path class="cls-8" d="M1.76,1.38,4.14.3h.12L1.88,1.37H1.76"/><path class="cls-9" d="M1.88,1.37,4.26.29h.11L2,1.38H1.88"/><path class="cls-10" d="M2,1.38,4.37.3h.09L2.09,1.39H2"/><path class="cls-11" d="M2.09,1.39,4.46.31h.09L2.18,1.4H2.09"/><path class="cls-12" d="M2.18,1.4,4.55.32l.09,0L2.26,1.42l-.08,0"/><path class="cls-13" d="M2.26,1.42,4.64.34l.08,0L2.35,1.44l-.09,0"/><path class="cls-14" d="M2.35,1.44,4.72.36l.09,0L2.43,1.47l-.08,0"/><path class="cls-15" d="M2.43,1.47,4.81.39l.08,0L2.51,1.5l-.08,0"/><path class="cls-16" d="M2.51,1.5,4.89.42,5,.46,2.59,1.54l-.08,0"/><path class="cls-17" d="M2.59,1.54,5,.46l.09,0L2.68,1.58l-.09,0"/><path class="cls-18" d="M2.68,1.58,5.06.5l.09.06L2.77,1.64l-.09-.06"/><path class="cls-19" d="M2.77,1.64,5.15.56l.1.07L2.87,1.71l-.1-.07"/><path class="cls-20" d="M2.87,1.71,5.25.63a.31.31,0,0,1,.11.09L3,1.8a.47.47,0,0,0-.12-.09"/><path class="cls-21" d="M3,1.8,5.36.72a1.58,1.58,0,0,1,.15.12L3.13,1.92A1.49,1.49,0,0,0,3,1.8"/><path class="cls-22" d="M3.13,1.92,5.51.84l.22.24L3.35,2.16a2.61,2.61,0,0,0-.22-.24"/><path class="cls-23" d="M3.35,2.16,5.73,1.08A4.88,4.88,0,0,1,6.29,2L3.91,3.05a4.39,4.39,0,0,0-.56-.89"/></g></g></g><g class="cls-2"><g class="cls-24"><g class="cls-2"><path class="cls-4" d="M4.9,1.2,7.28.12l.09,0L5,1.16l-.09,0"/><path class="cls-5" d="M5,1.16,7.37.08l.16,0L5.15,1.12,5,1.16"/><path class="cls-25" d="M5.15,1.12,7.53,0l.13,0L5.28,1.09l-.13,0"/><path class="cls-6" d="M5.28,1.09,7.66,0h.09L5.38,1.08h-.1"/></g></g></g><polygon class="cls-26" points="5.38 1.08 7.75 0 7.94 0 5.57 1.08 5.38 1.08"/><g class="cls-2"><g class="cls-27"><g class="cls-2"><polyline class="cls-9" points="5.57 1.08 7.94 0 7.95 0 5.58 1.08 5.57 1.08"/><path class="cls-10" d="M5.58,1.08,8,0h.12L5.69,1.09H5.58"/><path class="cls-11" d="M5.69,1.09,8.07,0l.1,0L5.8,1.11l-.11,0"/><path class="cls-12" d="M5.8,1.11,8.17,0l.1,0L5.9,1.13l-.1,0"/><path class="cls-13" d="M5.9,1.13,8.27.05l.1,0L6,1.16l-.1,0"/><path class="cls-14" d="M6,1.16,8.37.08l.1,0L6.1,1.19l-.1,0"/><path class="cls-15" d="M6.1,1.19,8.47.11l.11,0L6.2,1.23l-.1,0"/><path class="cls-16" d="M6.2,1.23,8.58.15l.1.05L6.3,1.28l-.1-.05"/><path class="cls-17" d="M6.3,1.28,8.68.2l.11.06L6.41,1.34a.39.39,0,0,0-.11-.06"/><path class="cls-18" d="M6.41,1.34,8.79.26l.12.07L6.54,1.41l-.13-.07"/><path class="cls-19" d="M6.54,1.41,8.91.33l.14.09L6.67,1.5l-.13-.09"/><path class="cls-20" d="M6.67,1.5,9.05.42l.16.12L6.83,1.62,6.67,1.5"/><path class="cls-21" d="M6.83,1.62,9.21.54l.14.12.09.09L7.06,1.83,7,1.74l-.14-.12"/><path class="cls-22" d="M7.06,1.83,9.44.75A2,2,0,0,1,9.68,1L7.31,2.09a3.07,3.07,0,0,0-.25-.26"/><path class="cls-23" d="M7.31,2.09,9.68,1a3.22,3.22,0,0,1,.45.7L7.75,2.79a3.59,3.59,0,0,0-.44-.7"/><path class="cls-22" d="M7.75,2.79l2.38-1.08c0,.12.1.23.14.35L7.89,3.14c0-.12-.09-.23-.14-.35"/><path class="cls-21" d="M7.89,3.14l2.38-1.08c0,.09.05.18.08.27L8,3.41a2.76,2.76,0,0,0-.08-.27"/><path class="cls-20" d="M8,3.41l2.38-1.08a2,2,0,0,1,.05.24L8,3.65a2,2,0,0,0,0-.24"/><path class="cls-19" d="M8,3.65,10.4,2.57v.07l0,.16L8.06,3.88a.88.88,0,0,0,0-.16l0-.07"/><path class="cls-18" d="M8.06,3.88,10.44,2.8a1.79,1.79,0,0,1,0,.23L8.09,4.11l0-.23"/><path class="cls-17" d="M8.09,4.11,10.46,3c0,.07,0,.15,0,.22L8.1,4.33c0-.07,0-.15,0-.22"/><path class="cls-16" d="M8.1,4.33l2.38-1.08v.23L8.1,4.56V4.33"/><path class="cls-15" d="M8.1,4.56l2.38-1.08c0,.08,0,.16,0,.24L8.09,4.8a1.93,1.93,0,0,0,0-.24"/><path class="cls-14" d="M8.09,4.8l2.38-1.08c0,.09,0,.17,0,.26L8.07,5.06a2.28,2.28,0,0,0,0-.26"/><path class="cls-13" d="M8.07,5.06,10.45,4c0,.09,0,.18,0,.28L8,5.34c0-.1,0-.19,0-.28"/><path class="cls-12" d="M8,5.34l2.38-1.08-.06.3L8,5.64c0-.1,0-.2.06-.3"/><path class="cls-11" d="M8,5.64l2.38-1.08a3.59,3.59,0,0,1-.08.35L7.89,6A3.59,3.59,0,0,0,8,5.64"/><path class="cls-10" d="M7.89,6l2.38-1.08-.12.41L7.77,6.4,7.89,6"/><path class="cls-9" d="M7.77,6.4l2.38-1.08L10,5.81,7.59,6.89c.07-.17.13-.33.18-.49"/><path class="cls-8" d="M7.59,6.89,10,5.81c-.08.2-.17.41-.27.62L7.33,7.5c.09-.2.18-.41.26-.61"/><path class="cls-6" d="M7.33,7.5,9.7,6.43c0,.09-.08.18-.13.27-.37.74-.69,1.36-1,1.84L6.23,9.62c.27-.48.59-1.1,1-1.84l.14-.28"/><path class="cls-25" d="M6.23,9.62,8.61,8.54q-.31.57-.54.9L5.7,10.52c.14-.22.32-.52.53-.9"/><path class="cls-5" d="M5.7,10.52,8.07,9.44c-.07.11-.14.2-.19.27L5.5,10.79c.06-.07.12-.16.2-.27"/><path class="cls-4" d="M5.5,10.79,7.88,9.71a.76.76,0,0,1-.17.16L5.33,10.94a.66.66,0,0,0,.17-.15"/></g></g></g><path class="cls-28" d="M1.73,1.38c.86-.07,1.59.48,2.18,1.67.13-1.23.62-1.9,1.47-2h.19A2.27,2.27,0,0,1,7,1.74,3.42,3.42,0,0,1,8,3.72a6.66,6.66,0,0,1-.85,4.06C6.15,9.87,5.51,10.94,5.3,11S4,10,2.27,8.18A7.82,7.82,0,0,1,.06,4.39,2.93,2.93,0,0,1,.4,2.3a1.9,1.9,0,0,1,1.13-.89Z"/></g></g></g></svg>