<svg xmlns="http://www.w3.org/2000/svg" xmlns:xlink="http://www.w3.org/1999/xlink" viewBox="0 0 9.69 11.93"><defs><style>.cls-1{fill:none;}.cls-2{isolation:isolate;}.cls-3{clip-path:url(#clip-path);}.cls-4{fill:#8a8a8a;}.cls-5{fill:#858585;}.cls-6{clip-path:url(#clip-path-2);}.cls-7{fill:#f0f0f0;}.cls-8{fill:#ebebeb;}.cls-9{fill:#e6e6e6;}.cls-10{fill:#e0e0e0;}.cls-11{fill:#f7f7f7;}.cls-12{clip-path:url(#clip-path-3);}.cls-13{fill:#dbdbdb;}.cls-14{fill:#d6d6d6;}.cls-15{fill:#d1d1d1;}.cls-16{fill:#ccc;}.cls-17{fill:#c7c7c7;}.cls-18{fill:#c2c2c2;}.cls-19{fill:#bdbdbd;}.cls-20{fill:#b8b8b8;}.cls-21{fill:#b3b3b3;}.cls-22{fill:#adadad;}.cls-23{fill:#a8a8a8;}.cls-24{fill:#a3a3a3;}.cls-25{fill:#9e9e9e;}.cls-26{fill:#999;}.cls-27{fill:#949494;}.cls-28{fill:#8f8f8f;}.cls-29{clip-path:url(#clip-path-4);}.cls-30{fill:#a5a5a5;}</style><clipPath id="clip-path"><path class="cls-1" d="M4.18,10,.74,8.72a1,1,0,0,0,.35.06A1.89,1.89,0,0,0,2.2,8.32L5.63,9.56a1.91,1.91,0,0,1-1.1.45A1.29,1.29,0,0,1,4.18,10Z"/></clipPath><clipPath id="clip-path-2"><path class="cls-1" d="M3.56,8.3,7,9.53a4.79,4.79,0,0,0,.16,1.87L3.73,10.17A5,5,0,0,1,3.56,8.3Z"/></clipPath><clipPath id="clip-path-3"><path class="cls-1" d="M4.84,11.87,1.41,10.64a4.55,4.55,0,0,0,1.12,0c1,0,1.18-.07,1.23-.32l3.43,1.24c0,.24-.23.3-1.22.31A3.75,3.75,0,0,1,4.84,11.87Z"/></clipPath><clipPath id="clip-path-4"><path class="cls-1" d="M7.52,9.88,4.08,8.65a1.31,1.31,0,0,0,.44.07,1.47,1.47,0,0,0,1-.49,2.48,2.48,0,0,0,.69-1.4c.24-1.42-.56-3.46-1.34-5.45C4.54.55,4.36.09,4.3,0L7.74,1.23c.06.1.24.56.57,1.39.78,2,1.58,4,1.34,5.44A2.52,2.52,0,0,1,9,9.46,1.46,1.46,0,0,1,8,10,1.27,1.27,0,0,1,7.52,9.88Z"/></clipPath></defs><title>poker_s2</title><g id="Layer_2" data-name="Layer 2"><g id="Layer_1-2" data-name="Layer 1"><g class="cls-2"><g class="cls-2"><g class="cls-3"><g class="cls-2"><path class="cls-4" d="M2.2,8.32,5.63,9.56l-.21.15L2,8.47l.21-.15"/><path class="cls-5" d="M2,8.47,5.42,9.71a1.69,1.69,0,0,1-.89.3,1.29,1.29,0,0,1-.35,0L.74,8.72a1,1,0,0,0,.35.06A1.77,1.77,0,0,0,2,8.47"/></g></g></g><g class="cls-2"><g class="cls-6"><g class="cls-2"><path class="cls-7" d="M3.56,8.3,7,9.53a6.66,6.66,0,0,0,0,1L3.56,9.3a8.32,8.32,0,0,1,0-1"/><path class="cls-8" d="M3.56,9.3,7,10.53a4,4,0,0,0,.06.51L3.63,9.8a2.74,2.74,0,0,1-.07-.5"/><path class="cls-9" d="M3.63,9.8,7.06,11l.06.24L3.69,10a1.05,1.05,0,0,1-.06-.24"/><path class="cls-10" d="M3.69,10l3.43,1.24a.56.56,0,0,1,0,.12L3.73,10.17a.93.93,0,0,1,0-.13"/></g></g></g><polygon class="cls-11" points="3.73 10.16 7.17 11.4 7.19 11.61 3.75 10.37 3.73 10.16"/><g class="cls-2"><g class="cls-12"><g class="cls-2"><path class="cls-9" d="M3.76,10.37l3.43,1.24v0L3.75,10.39v0"/><path class="cls-10" d="M3.75,10.39l3.44,1.24v0L3.75,10.41v0"/><path class="cls-13" d="M3.75,10.41l3.43,1.24h0L3.74,10.43v0"/><path class="cls-14" d="M3.74,10.43l3.44,1.23h0L3.74,10.44h0"/><polyline class="cls-15" points="3.74 10.44 7.18 11.67 7.17 11.68 3.73 10.45 3.74 10.44"/><polyline class="cls-16" points="3.73 10.45 7.17 11.68 7.17 11.69 3.73 10.46 3.73 10.45"/><polyline class="cls-17" points="3.73 10.46 7.17 11.69 7.17 11.7 3.73 10.46 3.73 10.46"/><polyline class="cls-18" points="3.73 10.46 7.17 11.7 7.16 11.71 3.72 10.47 3.73 10.46"/><polyline class="cls-19" points="3.72 10.47 7.16 11.71 7.16 11.71 3.72 10.48 3.72 10.47"/><polyline class="cls-20" points="3.72 10.48 7.16 11.71 7.15 11.72 3.72 10.49 3.72 10.48"/><polyline class="cls-21" points="3.72 10.49 7.15 11.72 7.15 11.73 3.71 10.49 3.72 10.49"/><polyline class="cls-22" points="3.71 10.49 7.15 11.73 7.14 11.73 3.71 10.5 3.71 10.49"/><polyline class="cls-23" points="3.71 10.5 7.14 11.73 7.14 11.74 3.7 10.51 3.71 10.5"/><polyline class="cls-24" points="3.7 10.51 7.14 11.74 7.13 11.75 3.7 10.51 3.7 10.51"/><polyline class="cls-25" points="3.7 10.51 7.13 11.75 7.13 11.75 3.69 10.52 3.7 10.51"/><polyline class="cls-26" points="3.69 10.52 7.13 11.75 7.12 11.76 3.68 10.53 3.69 10.52"/><polyline class="cls-27" points="3.68 10.53 7.12 11.76 7.11 11.77 3.67 10.54 3.68 10.53"/><polyline class="cls-28" points="3.67 10.54 7.11 11.77 7.1 11.78 3.66 10.55 3.67 10.54"/><path class="cls-4" d="M3.66,10.55,7.1,11.78l0,0L3.64,10.56h0"/><path class="cls-5" d="M3.64,10.56,7.08,11.8A2.78,2.78,0,0,1,6,11.92a3.75,3.75,0,0,1-1.13-.05L1.41,10.64a4.55,4.55,0,0,0,1.12,0,2.66,2.66,0,0,0,1.11-.13"/></g></g></g><g class="cls-2"><g class="cls-29"><g class="cls-2"><polyline class="cls-16" points="4.3 0 7.74 1.23 7.74 1.24 4.3 0 4.3 0"/><path class="cls-15" d="M4.3,0,7.74,1.24h0L4.32,0l0,0"/><path class="cls-14" d="M4.32,0,7.75,1.25l0,.07L4.35.08a.09.09,0,0,1,0-.06"/><path class="cls-13" d="M4.35.08,7.78,1.32c.09.18.25.61.53,1.3l.39,1L5.26,2.38l-.39-1C4.6.7,4.43.27,4.35.08"/><path class="cls-10" d="M5.26,2.38,8.7,3.61c.22.59.43,1.17.6,1.74L5.86,4.11C5.7,3.55,5.48,3,5.26,2.38"/><path class="cls-9" d="M5.86,4.11,9.3,5.35c.1.32.18.64.25,1L6.11,5.06c-.06-.3-.15-.62-.25-.95"/><path class="cls-8" d="M6.11,5.06,9.55,6.3a6.23,6.23,0,0,1,.13.91L6.24,6a6.42,6.42,0,0,0-.13-.91"/><path class="cls-7" d="M6.24,6,9.68,7.21c0,.15,0,.3,0,.45L6.25,6.43a3.57,3.57,0,0,0,0-.46"/><path class="cls-8" d="M6.25,6.43,9.69,7.66c0,.13,0,.25,0,.37L6.22,6.79c0-.12,0-.24,0-.36"/><path class="cls-9" d="M6.22,6.79,9.65,8v0a.85.85,0,0,1,0,.17L6.18,7l0-.17v0"/><path class="cls-10" d="M6.18,7,9.61,8.23l0,.15L6.14,7.14s0-.09,0-.14"/><path class="cls-13" d="M6.14,7.14,9.58,8.38s0,.07,0,.11L6.11,7.26l0-.12"/><path class="cls-14" d="M6.11,7.26,9.54,8.49l0,.1L6.07,7.36a.42.42,0,0,1,0-.1"/><path class="cls-15" d="M6.07,7.36,9.51,8.59a.36.36,0,0,1,0,.09L6,7.45l0-.09"/><path class="cls-16" d="M6,7.45,9.47,8.68l0,.08L6,7.53a.59.59,0,0,1,0-.08"/><path class="cls-17" d="M6,7.53,9.44,8.76l0,.08L6,7.6l0-.07"/><path class="cls-18" d="M6,7.6,9.4,8.84l0,.07L5.93,7.68,6,7.6"/><path class="cls-19" d="M5.93,7.68,9.37,8.91a.25.25,0,0,0,0,.07L5.89,7.74a.21.21,0,0,0,0-.06"/><path class="cls-20" d="M5.89,7.74,9.33,9a.43.43,0,0,0,0,.07L5.85,7.81a.16.16,0,0,0,0-.07"/><path class="cls-21" d="M5.85,7.81,9.29,9.05l0,.06L5.81,7.88l0-.07"/><path class="cls-22" d="M5.81,7.88,9.25,9.11l-.05.07L5.76,7.94l0-.06"/><path class="cls-23" d="M5.76,7.94,9.2,9.18l0,.07L5.71,8a.18.18,0,0,0,0-.07"/><path class="cls-24" d="M5.71,8,9.15,9.25l-.06.07L5.66,8.08l0-.07"/><path class="cls-25" d="M5.66,8.08,9.09,9.32,9,9.39,5.59,8.15l.07-.07"/><path class="cls-26" d="M5.59,8.15,9,9.39,9,9.46H9L5.52,8.23h0l.07-.08"/><path class="cls-27" d="M5.52,8.23,9,9.47l-.09.09L5.42,8.32l.1-.09"/><path class="cls-28" d="M5.42,8.32,8.86,9.56l-.11.09L5.31,8.41l.11-.09"/><path class="cls-4" d="M5.31,8.41,8.75,9.65l-.13.09L5.18,8.5a.6.6,0,0,0,.13-.09"/><path class="cls-5" d="M5.18,8.5,8.62,9.74A1.2,1.2,0,0,1,8,10a1.27,1.27,0,0,1-.44-.07L4.08,8.65a1.31,1.31,0,0,0,.44.07,1.27,1.27,0,0,0,.66-.22"/></g></g></g><path class="cls-30" d="M4.3,0c.06.09.24.55.57,1.38.78,2,1.58,4,1.34,5.45a2.48,2.48,0,0,1-.69,1.4,1.47,1.47,0,0,1-1,.49,1.31,1.31,0,0,1-1-.42,5,5,0,0,0,.17,1.87l0,.2c0,.25-.23.3-1.23.32-1.17,0-1.28,0-1.24-.27l.1-.21A7.54,7.54,0,0,0,2.2,8.32a1.89,1.89,0,0,1-1.11.46C.32,8.79-.14,8,0,6.93a6.59,6.59,0,0,1,1.1-2.46C2.1,3,4.1.27,4.3,0Z"/></g></g></g></svg>