<svg xmlns="http://www.w3.org/2000/svg" xmlns:xlink="http://www.w3.org/1999/xlink" viewBox="0 0 11.24 11.79"><defs><style>.cls-1{fill:none;}.cls-2{isolation:isolate;}.cls-3{clip-path:url(#clip-path);}.cls-4{fill:#999;}.cls-5{fill:#9e9e9e;}.cls-6{fill:#a3a3a3;}.cls-7{fill:#a8a8a8;}.cls-8{fill:#adadad;}.cls-9{fill:#b3b3b3;}.cls-10{fill:#b8b8b8;}.cls-11{fill:#bdbdbd;}.cls-12{fill:#949494;}.cls-13{fill:#8f8f8f;}.cls-14{fill:#8a8a8a;}.cls-15{fill:#858585;}.cls-16{clip-path:url(#clip-path-2);}.cls-17{clip-path:url(#clip-path-3);}.cls-18{fill:#e1e1e1;}.cls-19{clip-path:url(#clip-path-4);}.cls-20{fill:#c2c2c2;}.cls-21{fill:#c7c7c7;}.cls-22{fill:#ccc;}.cls-23{fill:#d1d1d1;}.cls-24{fill:#d6d6d6;}.cls-25{fill:#dbdbdb;}.cls-26{fill:#e0e0e0;}.cls-27{fill:#e6e6e6;}.cls-28{fill:#ebebeb;}.cls-29{fill:#f0f0f0;}.cls-30{clip-path:url(#clip-path-5);}.cls-31{fill:#f6f6f6;}.cls-32{clip-path:url(#clip-path-6);}.cls-33{clip-path:url(#clip-path-7);}.cls-34{fill:#a5a5a5;}</style><clipPath id="clip-path"><path class="cls-1" d="M2.45,4.12,5.89,5.35a3.22,3.22,0,0,1,.82.48L3.28,4.6A2.81,2.81,0,0,0,2.45,4.12Z"/></clipPath><clipPath id="clip-path-2"><path class="cls-1" d="M4.36,10,.92,8.78a1.43,1.43,0,0,0,.43.07c.49,0,.91-.32,1.54-.88L6.33,9.2a2.55,2.55,0,0,1-1.55.88A1.16,1.16,0,0,1,4.36,10Z"/></clipPath><clipPath id="clip-path-3"><polygon class="cls-1" points="2.9 7.97 6.33 9.2 6.33 9.2 2.89 7.97 2.9 7.97"/></clipPath><clipPath id="clip-path-4"><path class="cls-1" d="M5.48.07,8.92,1.31a1.9,1.9,0,0,1,.9,2.15A3.31,3.31,0,0,1,9.4,4.57c-.21.36-.84,1.17-.85,1.23L5.11,4.56c0-.06.64-.87.85-1.23a3.35,3.35,0,0,0,.42-1.1A1.91,1.91,0,0,0,5.48.07Z"/></clipPath><clipPath id="clip-path-5"><path class="cls-1" d="M4.37,8,7.81,9.21s-.06,0-.08.19a7.29,7.29,0,0,0,0,1.84L4.33,10a7.21,7.21,0,0,1,0-1.83C4.32,8,4.34,8,4.37,8Z"/></clipPath><clipPath id="clip-path-6"><path class="cls-1" d="M5.71,11.73,2.27,10.5a3.19,3.19,0,0,0,.91.05c1,0,1.1-.08,1.15-.34l3.44,1.24c0,.26-.14.32-1.15.34A3.05,3.05,0,0,1,5.71,11.73Z"/></clipPath><clipPath id="clip-path-7"><path class="cls-1" d="M6.91,4.09l3.44,1.23c.73.27,1,1.31.85,2.25A3.4,3.4,0,0,1,9.9,9.75a1.55,1.55,0,0,1-.85.29A1.06,1.06,0,0,1,8.68,10L5.24,8.75a1.1,1.1,0,0,0,.37.06,1.57,1.57,0,0,0,.85-.3,3.32,3.32,0,0,0,1.3-2.18C7.92,5.39,7.65,4.36,6.91,4.09Z"/></clipPath></defs><title>poker_c2</title><g id="Layer_2" data-name="Layer 2"><g id="Layer_1-2" data-name="Layer 1"><g class="cls-2"><g class="cls-2"><g class="cls-3"><g class="cls-2"><polyline class="cls-4" points="2.45 4.12 5.89 5.35 5.89 5.35 2.46 4.12 2.45 4.12"/><path class="cls-5" d="M2.46,4.12,5.89,5.35,6,5.41,2.61,4.18l-.15-.06"/><path class="cls-6" d="M2.61,4.18,6,5.41l.19.1L2.8,4.28l-.19-.1"/><path class="cls-7" d="M2.8,4.28,6.23,5.51a1.54,1.54,0,0,1,.23.14L3,4.41,2.8,4.28"/><path class="cls-8" d="M3,4.41,6.46,5.65l.18.12L3.21,4.54,3,4.41"/><path class="cls-9" d="M3.21,4.54,6.64,5.77l.06,0L3.26,4.58l0,0"/><polyline class="cls-10" points="3.26 4.58 6.7 5.81 6.71 5.82 3.27 4.59 3.26 4.58"/><polyline class="cls-11" points="3.27 4.59 6.71 5.82 6.71 5.83 3.27 4.59 3.27 4.59"/><polyline class="cls-10" points="3.27 4.59 6.71 5.83 6.71 5.83 3.27 4.59 3.27 4.59"/><polyline class="cls-9" points="3.27 4.59 6.71 5.83 6.71 5.83 3.27 4.59 3.27 4.59"/><polyline class="cls-8" points="3.27 4.59 6.71 5.83 6.71 5.83 3.27 4.59 3.27 4.59"/><polyline class="cls-7" points="3.27 4.59 6.71 5.83 6.71 5.83 3.27 4.59 3.27 4.59"/><polyline class="cls-6" points="3.27 4.59 6.71 5.83 6.71 5.83 3.28 4.59 3.27 4.59"/><polyline class="cls-5" points="3.28 4.59 6.71 5.83 6.71 5.83 3.28 4.59 3.28 4.59"/><polyline class="cls-4" points="3.28 4.59 6.71 5.83 6.71 5.83 3.28 4.59 3.28 4.59"/><polyline class="cls-12" points="3.28 4.59 6.71 5.83 6.71 5.83 3.28 4.59 3.28 4.59"/><polyline class="cls-13" points="3.28 4.59 6.71 5.83 6.71 5.83 3.28 4.59 3.28 4.59"/><polyline class="cls-14" points="3.28 4.59 6.71 5.83 6.71 5.83 3.27 4.59 3.28 4.59"/><polyline class="cls-15" points="3.27 4.59 6.71 5.83 6.71 5.83 3.27 4.59 3.27 4.59"/></g></g></g><g class="cls-2"><g class="cls-16"><g class="cls-2"><path class="cls-12" d="M2.89,8,6.33,9.2l-.1.09L2.8,8.05,2.89,8"/><path class="cls-13" d="M2.8,8.05,6.23,9.29l-.39.33L2.4,8.38a3.66,3.66,0,0,0,.4-.33"/><path class="cls-14" d="M2.4,8.38,5.84,9.62l-.26.19L2.14,8.57l.26-.19"/><path class="cls-15" d="M2.14,8.57,5.58,9.81a1.53,1.53,0,0,1-.8.27A1.16,1.16,0,0,1,4.36,10L.92,8.78a1.43,1.43,0,0,0,.43.07,1.52,1.52,0,0,0,.79-.28"/></g></g></g><g class="cls-2"><g class="cls-17"><g class="cls-2"><polyline class="cls-15" points="2.9 7.97 6.33 9.2 6.33 9.2 2.89 7.97 2.9 7.97"/></g></g></g><polygon class="cls-18" points="5.11 4.56 8.55 5.8 8.58 5.84 5.14 4.61 5.11 4.56"/><g class="cls-2"><g class="cls-19"><g class="cls-2"><polyline class="cls-4" points="5.48 0.07 8.92 1.31 8.92 1.31 5.48 0.07 5.48 0.07"/><path class="cls-5" d="M5.48.08,8.92,1.31l.08,0L5.57.11l-.09,0"/><path class="cls-6" d="M5.57.11,9,1.34l.08,0L5.64.15l-.07,0"/><path class="cls-7" d="M5.64.15,9.08,1.38l.07.05L5.72.19l-.08,0"/><path class="cls-8" d="M5.72.19,9.15,1.43l.07,0L5.78.24l-.06,0"/><path class="cls-9" d="M5.78.24,9.22,1.47l.06.05L5.85.29l-.07,0"/><path class="cls-10" d="M5.85.29,9.28,1.52l.06.06L5.91.34,5.85.29"/><path class="cls-11" d="M5.91.34,9.34,1.58l.06,0L6,.4l0-.06"/><path class="cls-20" d="M6,.4,9.4,1.63l0,.07L6,.46,6,.4"/><path class="cls-21" d="M6,.46,9.45,1.7l.06.07L6.07.54,6,.46"/><path class="cls-22" d="M6.07.54,9.51,1.77l.05.08L6.12.61l0-.07"/><path class="cls-23" d="M6.12.61,9.56,1.85l0,.09L6.17.7a.41.41,0,0,0,0-.09"/><path class="cls-24" d="M6.17.7,9.61,1.94a.93.93,0,0,1,.05.1L6.22.8a.47.47,0,0,0,0-.1"/><path class="cls-25" d="M6.22.8,9.66,2a1.17,1.17,0,0,1,.05.11L6.27.92a.61.61,0,0,0,0-.12"/><path class="cls-26" d="M6.27.92,9.71,2.15c0,.05,0,.1,0,.15L6.32,1.06,6.27.92"/><path class="cls-27" d="M6.32,1.06,9.76,2.3c0,.06,0,.12,0,.19L6.37,1.25c0-.06,0-.13,0-.19"/><path class="cls-28" d="M6.37,1.25,9.8,2.49a2,2,0,0,1,0,.35L6.41,1.6a2.09,2.09,0,0,0,0-.35"/><path class="cls-29" d="M6.41,1.6,9.85,2.84c0,.1,0,.2,0,.29L6.42,1.9c0-.1,0-.2,0-.3"/><path class="cls-28" d="M6.42,1.9,9.86,3.13q0,.17,0,.3L6.39,2.2l0-.3"/><path class="cls-27" d="M6.39,2.2,9.83,3.43v0a.69.69,0,0,0,0,.13L6.36,2.36a.69.69,0,0,0,0-.13v0"/><path class="cls-26" d="M6.36,2.36,9.8,3.59a.93.93,0,0,1,0,.13L6.33,2.48l0-.12"/><path class="cls-25" d="M6.33,2.48,9.76,3.72l0,.11L6.29,2.6s0-.08,0-.12"/><path class="cls-24" d="M6.29,2.6,9.73,3.83a.49.49,0,0,1,0,.11L6.26,2.71l0-.11"/><path class="cls-23" d="M6.26,2.71,9.69,3.94s0,.07,0,.11L6.21,2.82a1.17,1.17,0,0,1,0-.11"/><path class="cls-22" d="M6.21,2.82,9.65,4.05l-.05.12L6.16,2.93l0-.11"/><path class="cls-21" d="M6.16,2.93,9.6,4.17l-.06.12L6.1,3.06l.06-.13"/><path class="cls-20" d="M6.1,3.06,9.54,4.29l-.07.14L6,3.2l.07-.14"/><path class="cls-11" d="M6,3.2,9.47,4.43c0,.05-.05.09-.07.13L6,3.33,6,3.2"/><path class="cls-10" d="M6,3.33,9.4,4.56h0l-.05.07L5.92,3.4l0-.07H6"/><path class="cls-9" d="M5.92,3.4,9.35,4.64l-.09.14L5.82,3.55a1.3,1.3,0,0,0,.1-.15"/><path class="cls-8" d="M5.82,3.55,9.26,4.78c-.12.18-.26.38-.4.56L5.43,4.11c.13-.18.28-.39.39-.56"/><path class="cls-7" d="M5.43,4.11,8.86,5.34l0,.07L5.38,4.17l0-.06"/><path class="cls-8" d="M5.38,4.17,8.82,5.41l-.22.31L5.16,4.48l.22-.31"/><path class="cls-9" d="M5.16,4.48,8.6,5.72l0,0L5.13,4.52l0,0"/><path class="cls-10" d="M5.13,4.52,8.57,5.76h0L5.13,4.54v0"/><polyline class="cls-11" points="5.13 4.54 8.56 5.77 8.56 5.78 5.12 4.55 5.13 4.54"/><polyline class="cls-20" points="5.12 4.55 8.56 5.78 8.56 5.79 5.12 4.55 5.12 4.55"/><polyline class="cls-21" points="5.12 4.55 8.56 5.79 8.55 5.79 5.12 4.55 5.12 4.55"/><polyline class="cls-22" points="5.12 4.55 8.55 5.79 8.55 5.79 5.12 4.55 5.12 4.55"/><polyline class="cls-23" points="5.12 4.55 8.55 5.79 8.55 5.79 5.12 4.56 5.12 4.55"/><polyline class="cls-24" points="5.12 4.56 8.55 5.79 8.55 5.79 5.12 4.56 5.12 4.56"/><polyline class="cls-25" points="5.12 4.56 8.55 5.79 8.55 5.79 5.12 4.56 5.12 4.56"/><polyline class="cls-26" points="5.12 4.56 8.55 5.79 8.55 5.8 5.11 4.56 5.12 4.56"/><polyline class="cls-27" points="5.11 4.56 8.55 5.8 8.55 5.8 5.11 4.56 5.11 4.56"/></g></g></g><g class="cls-2"><g class="cls-30"><g class="cls-2"><polyline class="cls-15" points="4.37 7.98 7.81 9.21 7.8 9.21 4.36 7.98 4.37 7.98"/><polyline class="cls-14" points="4.36 7.98 7.8 9.21 7.79 9.21 4.36 7.98 4.36 7.98"/><polyline class="cls-13" points="4.36 7.98 7.79 9.21 7.79 9.22 4.36 7.98 4.36 7.98"/><polyline class="cls-12" points="4.36 7.98 7.79 9.22 7.79 9.22 4.35 7.98 4.36 7.98"/><polyline class="cls-4" points="4.35 7.98 7.79 9.22 7.79 9.22 4.35 7.99 4.35 7.98"/><polyline class="cls-5" points="4.35 7.99 7.79 9.22 7.79 9.22 4.35 7.99 4.35 7.99"/><polyline class="cls-6" points="4.35 7.99 7.79 9.22 7.79 9.22 4.35 7.99 4.35 7.99"/><polyline class="cls-7" points="4.35 7.99 7.79 9.22 7.78 9.23 4.35 7.99 4.35 7.99"/><polyline class="cls-8" points="4.35 7.99 7.78 9.23 7.78 9.23 4.34 8 4.35 7.99"/><polyline class="cls-9" points="4.34 8 7.78 9.23 7.78 9.23 4.34 8 4.34 8"/><polyline class="cls-10" points="4.34 8 7.78 9.23 7.78 9.24 4.34 8 4.34 8"/><polyline class="cls-11" points="4.34 8 7.78 9.24 7.78 9.24 4.34 8.01 4.34 8"/><polyline class="cls-20" points="4.34 8.01 7.78 9.24 7.77 9.24 4.33 8.01 4.34 8.01"/><polyline class="cls-21" points="4.33 8.01 7.77 9.24 7.77 9.25 4.33 8.02 4.33 8.01"/><polyline class="cls-22" points="4.33 8.02 7.77 9.25 7.77 9.26 4.33 8.03 4.33 8.02"/><polyline class="cls-23" points="4.33 8.03 7.77 9.26 7.76 9.27 4.33 8.04 4.33 8.03"/><path class="cls-24" d="M4.33,8,7.76,9.27h0L4.32,8.05V8"/><path class="cls-25" d="M4.32,8.05,7.76,9.28v0L4.31,8.07v0"/><path class="cls-26" d="M4.31,8.07,7.75,9.3v0L4.31,8.11v0"/><path class="cls-27" d="M4.31,8.11,7.74,9.34s0,0,0,.06v0L4.29,8.19v0s0-.05,0-.06"/><path class="cls-28" d="M4.29,8.19,7.73,9.43a2.9,2.9,0,0,0,0,.34L4.26,8.54a1.9,1.9,0,0,1,0-.35"/><path class="cls-29" d="M4.26,8.54,7.69,9.77a8,8,0,0,0,0,.82L4.27,9.35a5.58,5.58,0,0,1,0-.81"/><path class="cls-28" d="M4.27,9.35l3.44,1.24c0,.2,0,.41.06.65L4.33,10c0-.23,0-.45-.06-.65"/></g></g></g><polygon class="cls-31" points="4.33 10 7.77 11.24 7.77 11.45 4.33 10.21 4.33 10"/><g class="cls-2"><g class="cls-32"><g class="cls-2"><path class="cls-27" d="M4.33,10.21l3.44,1.24v0L4.32,10.25v0"/><path class="cls-26" d="M4.32,10.25l3.44,1.24v0L4.32,10.28v0"/><path class="cls-25" d="M4.32,10.28l3.43,1.23v0L4.31,10.3v0"/><path class="cls-24" d="M4.31,10.3l3.44,1.23h0L4.31,10.31h0"/><polyline class="cls-23" points="4.31 10.31 7.74 11.54 7.74 11.55 4.3 10.32 4.31 10.31"/><polyline class="cls-22" points="4.3 10.32 7.74 11.55 7.74 11.56 4.3 10.33 4.3 10.32"/><polyline class="cls-21" points="4.3 10.33 7.74 11.56 7.73 11.57 4.29 10.34 4.3 10.33"/><polyline class="cls-20" points="4.29 10.34 7.73 11.57 7.73 11.58 4.29 10.35 4.29 10.34"/><polyline class="cls-11" points="4.29 10.35 7.73 11.58 7.72 11.59 4.29 10.35 4.29 10.35"/><polyline class="cls-10" points="4.29 10.35 7.72 11.59 7.72 11.59 4.28 10.36 4.29 10.35"/><polyline class="cls-9" points="4.28 10.36 7.72 11.59 7.71 11.6 4.28 10.37 4.28 10.36"/><polyline class="cls-8" points="4.28 10.37 7.71 11.6 7.71 11.61 4.27 10.37 4.28 10.37"/><polyline class="cls-7" points="4.27 10.37 7.71 11.61 7.71 11.61 4.27 10.38 4.27 10.37"/><polyline class="cls-6" points="4.27 10.38 7.71 11.61 7.7 11.62 4.26 10.39 4.27 10.38"/><polyline class="cls-5" points="4.26 10.39 7.7 11.62 7.69 11.63 4.26 10.39 4.26 10.39"/><polyline class="cls-4" points="4.26 10.39 7.69 11.63 7.69 11.63 4.25 10.4 4.26 10.39"/><polyline class="cls-12" points="4.25 10.4 7.69 11.63 7.68 11.64 4.24 10.41 4.25 10.4"/><polyline class="cls-13" points="4.24 10.41 7.68 11.64 7.67 11.65 4.23 10.42 4.24 10.41"/><path class="cls-14" d="M4.23,10.42l3.44,1.23,0,0L4.21,10.43h0"/><path class="cls-15" d="M4.21,10.43l3.43,1.24a2.43,2.43,0,0,1-1,.12,3.05,3.05,0,0,1-.91-.06L2.27,10.5a3.19,3.19,0,0,0,.91.05,2.53,2.53,0,0,0,1-.12"/></g></g></g><g class="cls-2"><g class="cls-33"><g class="cls-2"><polyline class="cls-4" points="6.91 4.09 10.35 5.33 10.35 5.33 6.91 4.09 6.91 4.09"/><path class="cls-5" d="M6.91,4.09l3.44,1.23.07,0L7,4.12l-.08,0"/><path class="cls-6" d="M7,4.12l3.43,1.24.07,0L7.06,4.16,7,4.12"/><path class="cls-7" d="M7.06,4.16l3.43,1.23.07,0L7.12,4.2l-.06,0"/><path class="cls-8" d="M7.12,4.2l3.44,1.23.06,0L7.18,4.24l-.06,0"/><path class="cls-9" d="M7.18,4.24l3.44,1.23.06,0L7.24,4.28l-.06,0"/><path class="cls-10" d="M7.24,4.28l3.44,1.24.05.05L7.3,4.33l-.06,0"/><path class="cls-11" d="M7.3,4.33l3.43,1.24.06,0L7.35,4.39l0-.06"/><path class="cls-20" d="M7.35,4.39l3.44,1.23.05.07L7.4,4.45l-.05-.06"/><path class="cls-21" d="M7.4,4.45l3.44,1.24.05.06L7.45,4.52a.18.18,0,0,0,0-.07"/><path class="cls-22" d="M7.45,4.52l3.44,1.23,0,.08L7.5,4.59l0-.07"/><path class="cls-23" d="M7.5,4.59l3.44,1.24a.56.56,0,0,0,.05.08L7.55,4.68a.41.41,0,0,0,0-.09"/><path class="cls-24" d="M7.55,4.68,11,5.91A.93.93,0,0,0,11,6L7.6,4.78a.93.93,0,0,0,0-.1"/><path class="cls-25" d="M7.6,4.78,11,6a.61.61,0,0,0,.05.12L7.65,4.89,7.6,4.78"/><path class="cls-26" d="M7.65,4.89l3.44,1.24s0,.09,0,.14L7.7,5s0-.1,0-.15"/><path class="cls-27" d="M7.7,5l3.43,1.23.06.2L7.75,5.24c0-.07,0-.14,0-.2"/><path class="cls-28" d="M7.75,5.24l3.44,1.23c0,.12,0,.25.05.38L7.8,5.62c0-.13,0-.26,0-.38"/><path class="cls-29" d="M7.8,5.62l3.44,1.23v.32L7.8,5.94a1.71,1.71,0,0,0,0-.32"/><path class="cls-28" d="M7.8,5.94l3.44,1.23c0,.12,0,.24,0,.36L7.77,6.3a2.19,2.19,0,0,0,0-.36"/><path class="cls-27" d="M7.77,6.3,11.2,7.53v0a1.16,1.16,0,0,1,0,.18L7.72,6.51a1.16,1.16,0,0,0,0-.18v0"/><path class="cls-26" d="M7.72,6.51l3.44,1.24c0,.06,0,.11,0,.17L7.68,6.69a1.16,1.16,0,0,0,0-.18"/><path class="cls-25" d="M7.68,6.69l3.44,1.23s0,.1,0,.15L7.64,6.84s0-.1,0-.15"/><path class="cls-24" d="M7.64,6.84l3.43,1.23s0,.09,0,.14L7.59,7c0-.05,0-.1,0-.14"/><path class="cls-23" d="M7.59,7,11,8.21a.69.69,0,0,0,0,.13L7.54,7.1l0-.12"/><path class="cls-22" d="M7.54,7.1,11,8.34a.61.61,0,0,0-.05.12L7.49,7.22l0-.12"/><path class="cls-21" d="M7.49,7.22l3.44,1.24-.06.11L7.44,7.34a.61.61,0,0,1,0-.12"/><path class="cls-20" d="M7.44,7.34l3.43,1.23a1.17,1.17,0,0,1,0,.11L7.38,7.45l.06-.11"/><path class="cls-11" d="M7.38,7.45l3.44,1.23-.06.11L7.32,7.55l.06-.1"/><path class="cls-10" d="M7.32,7.55l3.44,1.24-.06.1L7.26,7.66l.06-.11"/><path class="cls-9" d="M7.26,7.66,10.7,8.89a.61.61,0,0,1-.07.1L7.2,7.76l.06-.1"/><path class="cls-8" d="M7.2,7.76,10.63,9l-.06.1L7.13,7.85l.07-.09"/><path class="cls-7" d="M7.13,7.85l3.44,1.24-.08.09L7.06,8l.07-.1"/><path class="cls-6" d="M7.06,8l3.43,1.23a.86.86,0,0,0-.07.1L7,8,7.06,8"/><path class="cls-5" d="M7,8l3.44,1.24-.08.09L6.9,8.13,7,8"/><path class="cls-4" d="M6.9,8.13l3.44,1.24-.09.09L6.81,8.23l.09-.1"/><path class="cls-12" d="M6.81,8.23l3.44,1.23-.11.1L6.71,8.32l.1-.09"/><path class="cls-13" d="M6.71,8.32l3.43,1.24-.12.1L6.59,8.42l.12-.1"/><path class="cls-14" d="M6.59,8.42,10,9.66l-.12.09,0,0L6.43,8.53l0,0,.13-.09"/><path class="cls-15" d="M6.43,8.53,9.86,9.77a1.45,1.45,0,0,1-.81.27A1.06,1.06,0,0,1,8.68,10L5.24,8.75a1.1,1.1,0,0,0,.37.06,1.61,1.61,0,0,0,.82-.28"/></g></g></g><path class="cls-34" d="M5,0C6.17,0,6.55,1.26,6.38,2.23A3.35,3.35,0,0,1,6,3.33c-.21.36-.84,1.17-.85,1.23l0,.05A3.55,3.55,0,0,1,6.5,4c1,0,1.45,1.21,1.26,2.3a3.32,3.32,0,0,1-1.3,2.18,1.57,1.57,0,0,1-.85.3c-.5,0-.8-.28-1.24-.83,0,0,0,0-.08.19a7.21,7.21,0,0,0,0,1.83v.21c0,.26-.14.32-1.15.34s-1.08-.05-1-.33L2.22,10A8,8,0,0,0,2.9,8.18c0-.14,0-.21,0-.21-.63.56-1,.87-1.54.88-1,0-1.52-1.09-1.3-2.35S1.18,4.07,2.12,4.05a2.45,2.45,0,0,1,1.16.55l0,0a1.31,1.31,0,0,0-.15-.41,2.88,2.88,0,0,1-.32-1.87A2.59,2.59,0,0,1,5,0Z"/></g></g></g></svg>