<svg xmlns="http://www.w3.org/2000/svg" xmlns:xlink="http://www.w3.org/1999/xlink" viewBox="0 0 11.85 11.72"><defs><style>.cls-1{fill:none;}.cls-2{isolation:isolate;}.cls-3{clip-path:url(#clip-path);}.cls-4{fill:#858585;}.cls-5{clip-path:url(#clip-path-2);}.cls-6{fill:#8a8a8a;}.cls-7{fill:#8f8f8f;}.cls-8{fill:#949494;}.cls-9{fill:#999;}.cls-10{fill:#9e9e9e;}.cls-11{fill:#a3a3a3;}.cls-12{fill:#a8a8a8;}.cls-13{fill:#adadad;}.cls-14{fill:#b3b3b3;}.cls-15{fill:#b8b8b8;}.cls-16{fill:#bdbdbd;}.cls-17{fill:#c2c2c2;}.cls-18{fill:#c7c7c7;}.cls-19{fill:#ccc;}.cls-20{clip-path:url(#clip-path-3);}.cls-21{fill:#d1d1d1;}.cls-22{fill:#fbfbfb;}.cls-23{clip-path:url(#clip-path-4);}.cls-24{fill:#d6d6d6;}.cls-25{fill:#dbdbdb;}.cls-26{fill:#e0e0e0;}.cls-27{fill:#e6e6e6;}.cls-28{fill:#f7f7f7;}.cls-29{clip-path:url(#clip-path-5);}.cls-30{clip-path:url(#clip-path-6);}.cls-31{fill:#c1c1c1;}.cls-32{clip-path:url(#clip-path-7);}</style><clipPath id="clip-path" transform="translate(0 0)"><path class="cls-1" d="M5.44,8.93,3.06,10a1.74,1.74,0,0,0,.26-.15c.08,0,.16-.12.25-.19l.25-.24.27-.29L6.47,8.06l-.27.29-.26.24a2.19,2.19,0,0,1-.25.2Z"/></clipPath><clipPath id="clip-path-2" transform="translate(0 0)"><path class="cls-1" d="M1.12,5.47,3.5,4.4l.12-.05.12,0,.13,0H4a2.2,2.2,0,0,1,.49,0A4.81,4.81,0,0,1,5,4.47a2.85,2.85,0,0,1,.43.16l.17.07L3.25,5.78,3.09,5.7l-.43-.16a4.94,4.94,0,0,0-.55-.15,1.77,1.77,0,0,0-.49,0l-.13,0-.13,0-.12,0Z"/></clipPath><clipPath id="clip-path-3" transform="translate(0 0)"><path class="cls-1" d="M9,10.41,6.61,11.5l.08-.05,0-.06a.15.15,0,0,0,0-.07.25.25,0,0,0,0-.08L9.1,10.15a.25.25,0,0,1,0,.08.15.15,0,0,1,0,.07l0,.06Z"/></clipPath><clipPath id="clip-path-4" transform="translate(0 0)"><path class="cls-1" d="M5.9,9,8.27,7.94l0,0V8a0,0,0,0,0,0,.05.28.28,0,0,0,0,.09c0,.1.05.21.09.34s.09.26.15.41.14.31.23.49.18.36.29.56L6.65,11c-.11-.2-.21-.39-.29-.56s-.16-.34-.23-.49S6,9.69,6,9.56a1.23,1.23,0,0,1-.09-.34.25.25,0,0,1,0-.08.13.13,0,0,1,0-.06.08.08,0,0,0,0,0Z"/></clipPath><clipPath id="clip-path-5" transform="translate(0 0)"><path class="cls-1" d="M2.94,1.24,5.32.18A.47.47,0,0,1,5.47.12l.16,0,.16,0L6,0,3.59,1.08l-.17,0-.17,0-.16.05Z"/></clipPath><clipPath id="clip-path-6" transform="translate(0 0)"><path class="cls-1" d="M3.59,1.08,6,0a2.23,2.23,0,0,1,1,.13,2.66,2.66,0,0,1,.77.49,2.53,2.53,0,0,1,.54.7,2.65,2.65,0,0,1,.28.75c0,.1,0,.19,0,.28a2.43,2.43,0,0,1,0,.27,2.93,2.93,0,0,1-.05.29c0,.09,0,.19-.07.29a3.66,3.66,0,0,1-.14.36c-.06.13-.12.27-.19.41l-.16.35c-.05.09-.08.16-.07.17L5.49,5.58l.07-.17c.05-.1.11-.22.17-.36s.13-.27.19-.41a2,2,0,0,0,.13-.35c0-.1.06-.2.08-.3a2.7,2.7,0,0,0,0-.28,1.31,1.31,0,0,0,0-.28,1.24,1.24,0,0,0,0-.27,2.32,2.32,0,0,0-.27-.76,3,3,0,0,0-.54-.7,2.4,2.4,0,0,0-.78-.49A2.2,2.2,0,0,0,3.59,1.08Z"/></clipPath><clipPath id="clip-path-7" transform="translate(0 0)"><path class="cls-1" d="M6.41,5.1,8.78,4,8.93,4l.15,0,.14,0,.14,0a1.76,1.76,0,0,1,.89.14,2.28,2.28,0,0,1,.74.49,2.91,2.91,0,0,1,.53.72,2.77,2.77,0,0,1,.29.82,3,3,0,0,1,0,.66,3.19,3.19,0,0,1-.12.63,2.56,2.56,0,0,1-.27.55,2.09,2.09,0,0,1-.41.43L11,8.35l-.09.06-.09.05-.09,0L8.33,9.59l.09-.05.08,0,.09-.05.09-.07a1.86,1.86,0,0,0,.41-.43,2.56,2.56,0,0,0,.27-.55,3.24,3.24,0,0,0,.12-.62,3,3,0,0,0,0-.67,2.77,2.77,0,0,0-.29-.82,2.54,2.54,0,0,0-.53-.72,2.3,2.3,0,0,0-.74-.5A1.88,1.88,0,0,0,7,4.93L6.85,5,6.71,5,6.56,5Z"/></clipPath></defs><title>s</title><g id="Layer_2" data-name="Layer 2"><g id="Layer_1-2" data-name="Layer 1"><g class="cls-2"><g class="cls-2"><g class="cls-3"><g class="cls-2"><path class="cls-4" d="M4.09,9.15,6.47,8.06l-.27.29-.26.24a2.19,2.19,0,0,1-.25.2l-.25.14L3.06,10a1.74,1.74,0,0,0,.26-.15c.08,0,.16-.12.25-.19l.25-.24.27-.29" transform="translate(0 0)"/></g></g></g><g class="cls-2"><g class="cls-5"><g class="cls-2"><path class="cls-4" d="M1.12,5.47,3.5,4.4h.1L1.22,5.43h-.1" transform="translate(0 0)"/><path class="cls-6" d="M1.22,5.43,3.6,4.36l0,0h.09l0,0L1.39,5.38H1.31l0,0H1.22" transform="translate(0 0)"/><path class="cls-7" d="M1.39,5.38,3.77,4.3h.14L1.53,5.35H1.39" transform="translate(0 0)"/><path class="cls-8" d="M1.53,5.35,3.91,4.28H4L1.64,5.34H1.53" transform="translate(0 0)"/><path class="cls-9" d="M1.64,5.34,4,4.27h.07L1.71,5.34H1.64" transform="translate(0 0)"/><path class="cls-10" d="M1.71,5.34,4.09,4.26h.08L1.79,5.34H1.71" transform="translate(0 0)"/><path class="cls-11" d="M1.79,5.34,4.17,4.27h.11L1.9,5.35H1.79" transform="translate(0 0)"/><path class="cls-12" d="M1.9,5.35,4.28,4.28h.14L2,5.37H1.9" transform="translate(0 0)"/><path class="cls-13" d="M2,5.37,4.42,4.3H4.6L2.22,5.41H2" transform="translate(0 0)"/><path class="cls-14" d="M2.22,5.41,4.6,4.34h.06l.06,0,.07,0,.06,0L2.47,5.48l-.06,0H2.35l-.07,0-.06,0" transform="translate(0 0)"/><path class="cls-15" d="M2.47,5.48,4.85,4.41l.08,0,.09,0,.08,0,.08,0L2.8,5.59l-.08,0-.08,0-.08,0-.09,0" transform="translate(0 0)"/><path class="cls-16" d="M2.8,5.59,5.18,4.52l.09,0,.08,0,.07,0,.07,0L3.11,5.71l-.06,0L3,5.66l-.08,0-.09,0" transform="translate(0 0)"/><path class="cls-17" d="M3.11,5.71,5.49,4.64h.06l0,0h0L3.22,5.76H3.15l0,0" transform="translate(0 0)"/><polyline class="cls-18" points="3.22 5.76 5.6 4.68 5.61 4.69 5.61 4.69 5.61 4.69 5.62 4.69 3.24 5.77 3.24 5.77 3.23 5.77 3.23 5.76 3.22 5.76"/><polyline class="cls-19" points="3.24 5.77 5.62 4.69 5.62 4.7 5.62 4.7 5.62 4.7 5.63 4.7 3.25 5.78 3.25 5.77 3.25 5.77 3.24 5.77 3.24 5.77"/><polyline class="cls-18" points="3.25 5.78 5.63 4.7 5.63 4.7 5.63 4.7 5.63 4.7 5.63 4.7 3.25 5.78 3.25 5.78 3.25 5.78 3.25 5.78 3.25 5.78"/><polyline class="cls-17" points="3.25 5.78 5.63 4.7 5.63 4.7 5.63 4.7 5.63 4.7 5.63 4.7 3.25 5.78 3.25 5.78 3.25 5.78 3.25 5.78 3.25 5.78"/><polyline class="cls-16" points="3.25 5.78 5.63 4.7 5.63 4.7 5.63 4.7 5.63 4.7 5.63 4.7 3.25 5.78 3.25 5.78 3.25 5.78 3.25 5.78 3.25 5.78"/><polyline class="cls-15" points="3.25 5.78 5.63 4.7 5.63 4.7 5.63 4.7 5.63 4.7 5.63 4.7 3.25 5.78 3.25 5.78 3.25 5.78 3.25 5.78 3.25 5.78"/><polyline class="cls-14" points="3.25 5.78 5.63 4.7 5.63 4.7 5.63 4.7 5.63 4.7 5.63 4.7 3.25 5.78 3.25 5.78 3.25 5.78 3.25 5.78 3.25 5.78"/><polyline class="cls-13" points="3.25 5.78 5.63 4.7 5.63 4.7 5.63 4.7 5.63 4.7 5.63 4.7 3.25 5.78 3.25 5.78 3.25 5.78 3.25 5.78 3.25 5.78"/><polyline class="cls-12" points="3.25 5.78 5.63 4.7 5.63 4.7 5.63 4.7 5.63 4.7 5.63 4.7 3.25 5.78 3.25 5.78 3.25 5.78 3.25 5.78 3.25 5.78"/><polyline class="cls-11" points="3.25 5.78 5.63 4.7 5.63 4.7 5.63 4.7 5.63 4.7 5.63 4.7 3.25 5.78 3.25 5.78 3.25 5.78 3.25 5.78 3.25 5.78"/><polyline class="cls-10" points="3.25 5.78 5.63 4.7 5.63 4.7 5.63 4.7 5.63 4.7 5.63 4.7 3.25 5.78 3.25 5.78 3.25 5.78 3.25 5.78 3.25 5.78"/><polyline class="cls-9" points="3.25 5.78 5.63 4.7 5.63 4.7 5.63 4.7 5.63 4.7 5.63 4.7 3.25 5.78 3.25 5.78 3.25 5.78 3.25 5.78 3.25 5.78"/><polyline class="cls-8" points="3.25 5.78 5.63 4.7 5.63 4.7 5.63 4.7 5.63 4.7 5.63 4.7 3.25 5.78 3.25 5.78 3.25 5.78 3.25 5.78 3.25 5.78"/><polyline class="cls-7" points="3.25 5.78 5.63 4.7 5.63 4.7 5.63 4.7 5.63 4.7 5.63 4.7 3.25 5.78 3.25 5.78 3.25 5.78 3.25 5.78 3.25 5.78"/><polyline class="cls-6" points="3.25 5.78 5.63 4.7 5.63 4.7 5.63 4.7 5.63 4.7 5.63 4.7 3.25 5.78 3.25 5.78 3.25 5.78 3.25 5.78 3.25 5.78"/><polyline class="cls-4" points="3.25 5.78 5.63 4.7 5.63 4.7 5.63 4.7 5.63 4.7 5.63 4.7 3.25 5.78 3.25 5.78 3.25 5.78 3.25 5.78 3.25 5.78"/></g></g></g><g class="cls-2"><g class="cls-20"><g class="cls-2"><polyline class="cls-21" points="6.73 11.24 9.1 10.15 9.1 10.16 9.1 10.16 9.11 10.17 9.11 10.18 6.74 11.27 6.74 11.26 6.74 11.25 6.73 11.24 6.73 11.24"/><polyline class="cls-19" points="6.74 11.27 9.11 10.18 9.11 10.18 9.11 10.19 9.11 10.2 9.11 10.2 6.74 11.29 6.74 11.29 6.74 11.28 6.74 11.27 6.74 11.27"/><polyline class="cls-18" points="6.74 11.29 9.11 10.2 9.11 10.21 9.11 10.21 9.11 10.22 9.11 10.22 6.74 11.31 6.74 11.31 6.74 11.3 6.74 11.3 6.74 11.29"/><polyline class="cls-17" points="6.74 11.31 9.11 10.22 9.11 10.23 9.11 10.23 9.11 10.23 9.11 10.24 6.74 11.32 6.74 11.32 6.74 11.32 6.74 11.31 6.74 11.31"/><polyline class="cls-16" points="6.74 11.32 9.11 10.24 9.11 10.24 9.11 10.24 9.11 10.25 9.11 10.25 6.74 11.34 6.74 11.33 6.74 11.33 6.74 11.33 6.74 11.32"/><polyline class="cls-15" points="6.74 11.34 9.11 10.25 9.11 10.25 9.11 10.25 9.11 10.26 9.11 10.26 6.74 11.35 6.74 11.35 6.74 11.34 6.74 11.34 6.74 11.34"/><polyline class="cls-14" points="6.74 11.35 9.11 10.26 9.11 10.26 9.11 10.26 9.11 10.27 9.11 10.27 6.74 11.36 6.74 11.36 6.74 11.35 6.74 11.35 6.74 11.35"/><polyline class="cls-13" points="6.74 11.36 9.11 10.27 9.11 10.27 9.11 10.27 9.11 10.28 9.11 10.28 6.74 11.37 6.74 11.36 6.74 11.36 6.74 11.36 6.74 11.36"/><polyline class="cls-12" points="6.74 11.37 9.11 10.28 9.11 10.28 9.11 10.28 9.11 10.29 9.1 10.29 6.74 11.38 6.74 11.37 6.74 11.37 6.74 11.37 6.74 11.37"/><polyline class="cls-11" points="6.74 11.38 9.1 10.29 9.1 10.29 9.1 10.29 9.1 10.29 9.1 10.3 6.73 11.38 6.73 11.38 6.73 11.38 6.73 11.38 6.74 11.38"/><polyline class="cls-10" points="6.73 11.38 9.1 10.3 9.1 10.3 9.1 10.3 9.1 10.3 9.1 10.3 6.73 11.39 6.73 11.39 6.73 11.39 6.73 11.39 6.73 11.38"/><polyline class="cls-9" points="6.73 11.39 9.1 10.3 9.1 10.31 9.1 10.31 9.1 10.31 9.1 10.31 6.72 11.4 6.73 11.4 6.73 11.4 6.73 11.39 6.73 11.39"/><polyline class="cls-8" points="6.72 11.4 9.1 10.31 9.09 10.31 9.09 10.32 9.09 10.32 9.09 10.32 6.72 11.41 6.72 11.41 6.72 11.41 6.72 11.4 6.72 11.4"/><polyline class="cls-7" points="6.72 11.41 9.09 10.32 9.09 10.32 9.09 10.33 9.09 10.33 9.08 10.33 6.71 11.42 6.71 11.42 6.72 11.42 6.72 11.41 6.72 11.41"/><polyline class="cls-6" points="6.71 11.42 9.08 10.33 9.08 10.34 9.08 10.34 9.07 10.34 9.07 10.35 6.7 11.44 6.71 11.43 6.71 11.43 6.71 11.43 6.71 11.42"/><path class="cls-4" d="M6.7,11.44l2.37-1.09h0l0,0,0,0H9L6.61,11.5l0,0h0l0,0h0" transform="translate(0 0)"/></g></g></g><polygon class="cls-22" points="6.65 11.03 9.02 9.94 9.1 10.15 6.73 11.24 6.65 11.03"/><g class="cls-2"><g class="cls-23"><g class="cls-2"><polyline class="cls-4" points="5.9 9.03 8.27 7.94 8.27 7.94 8.27 7.95 8.26 7.95 8.26 7.95 5.89 9.03 5.89 9.03 5.89 9.03 5.9 9.03 5.9 9.03"/><polyline class="cls-6" points="5.89 9.03 8.26 7.95 8.26 7.95 8.26 7.95 8.26 7.95 8.26 7.95 5.89 9.04 5.89 9.04 5.89 9.04 5.89 9.03 5.89 9.03"/><polyline class="cls-7" points="5.89 9.04 8.26 7.95 8.26 7.95 8.26 7.95 8.26 7.96 8.26 7.96 5.88 9.04 5.88 9.04 5.89 9.04 5.89 9.04 5.89 9.04"/><polyline class="cls-8" points="5.88 9.04 8.26 7.96 8.26 7.96 8.26 7.96 8.26 7.96 8.26 7.96 5.88 9.04 5.88 9.04 5.88 9.04 5.88 9.04 5.88 9.04"/><polyline class="cls-9" points="5.88 9.04 8.26 7.96 8.25 7.96 8.25 7.96 8.25 7.96 8.25 7.96 5.88 9.05 5.88 9.05 5.88 9.04 5.88 9.04 5.88 9.04"/><polyline class="cls-10" points="5.88 9.05 8.25 7.96 8.25 7.96 8.25 7.96 8.25 7.97 8.25 7.97 5.88 9.05 5.88 9.05 5.88 9.05 5.88 9.05 5.88 9.05"/><polyline class="cls-11" points="5.88 9.05 8.25 7.97 8.25 7.97 8.25 7.97 8.25 7.97 8.25 7.97 5.88 9.05 5.88 9.05 5.88 9.05 5.88 9.05 5.88 9.05"/><polyline class="cls-12" points="5.88 9.05 8.25 7.97 8.25 7.97 8.25 7.97 8.25 7.98 8.25 7.98 5.88 9.06 5.88 9.06 5.88 9.06 5.88 9.06 5.88 9.05"/><polyline class="cls-13" points="5.88 9.06 8.25 7.98 8.25 7.98 8.25 7.98 8.25 7.98 8.25 7.98 5.88 9.07 5.88 9.07 5.88 9.06 5.88 9.06 5.88 9.06"/><polyline class="cls-14" points="5.88 9.07 8.25 7.98 8.25 7.99 8.25 7.99 8.25 7.99 8.25 7.99 5.88 9.07 5.88 9.07 5.88 9.07 5.88 9.07 5.88 9.07"/><polyline class="cls-15" points="5.88 9.07 8.25 7.99 8.25 7.99 8.25 8 8.25 8 8.25 8 5.87 9.09 5.88 9.08 5.88 9.08 5.88 9.08 5.88 9.07"/><polyline class="cls-16" points="5.87 9.09 8.25 8 8.25 8.01 8.24 8.01 8.24 8.01 8.24 8.01 5.87 9.1 5.87 9.1 5.87 9.09 5.87 9.09 5.87 9.09"/><polyline class="cls-17" points="5.87 9.1 8.24 8.01 8.24 8.02 8.24 8.02 8.24 8.03 8.24 8.03 5.87 9.12 5.87 9.11 5.87 9.11 5.87 9.1 5.87 9.1"/><polyline class="cls-18" points="5.87 9.12 8.24 8.03 8.25 8.04 8.25 8.04 8.25 8.05 8.25 8.06 5.88 9.14 5.88 9.13 5.88 9.13 5.87 9.12 5.87 9.12"/><polyline class="cls-19" points="5.88 9.14 8.25 8.06 8.25 8.07 8.25 8.07 8.25 8.09 8.25 8.1 5.88 9.18 5.88 9.17 5.88 9.16 5.88 9.15 5.88 9.14"/><polyline class="cls-21" points="5.88 9.18 8.25 8.1 8.25 8.11 8.25 8.12 8.26 8.13 8.26 8.14 8.26 8.14 8.26 8.15 8.26 8.16 8.26 8.17 5.89 9.25 5.89 9.24 5.89 9.24 5.89 9.23 5.89 9.22 5.88 9.21 5.88 9.2 5.88 9.19 5.88 9.18"/><path class="cls-24" d="M5.89,9.25,8.26,8.17V8.3L5.92,9.39V9.25" transform="translate(0 0)"/><path class="cls-25" d="M5.92,9.39,8.29,8.3l0,.06,0,.06v.05l0,.06L6,9.62l0-.06V9.5l0-.06,0,0" transform="translate(0 0)"/><path class="cls-26" d="M6,9.62,8.36,8.53l.06.15.06.15A1.22,1.22,0,0,0,8.55,9l.08.17L6.26,10.26a1.42,1.42,0,0,1-.08-.18,1.11,1.11,0,0,1-.07-.16,1,1,0,0,1-.06-.16L6,9.62" transform="translate(0 0)"/><path class="cls-27" d="M6.26,10.26,8.63,9.17a1.42,1.42,0,0,0,.08.18l.1.19c0,.06.06.13.1.2l.11.2L6.65,11a2.12,2.12,0,0,1-.11-.21,1.86,1.86,0,0,1-.1-.2,1.62,1.62,0,0,1-.1-.18l-.08-.18" transform="translate(0 0)"/></g></g></g><polygon class="cls-28" points="5.5 5.58 7.87 4.5 7.92 4.54 5.55 5.62 5.5 5.58"/><g class="cls-2"><g class="cls-29"><g class="cls-2"><path class="cls-4" d="M2.94,1.24,5.32.18l0,0h0l0,0h0L3.08,1.19H3l0,0h0" transform="translate(0 0)"/><path class="cls-6" d="M3.08,1.19,5.45.12l.06,0h0l.05,0h.06L3.29,1.12l0,0H3.18l-.05,0,0,0" transform="translate(0 0)"/><path class="cls-7" d="M3.29,1.12,5.67.06h.18L3.47,1.09H3.29" transform="translate(0 0)"/><path class="cls-8" d="M3.47,1.09,5.85,0H6L3.59,1.08H3.47" transform="translate(0 0)"/></g></g></g><g class="cls-2"><g class="cls-30"><g class="cls-2"><path class="cls-8" d="M3.59,1.08,6,0H6L3.63,1.07h0" transform="translate(0 0)"/><path class="cls-9" d="M3.63,1.07,6,0h.16L3.79,1.07H3.63" transform="translate(0 0)"/><path class="cls-10" d="M3.79,1.07,6.17,0h.14L3.93,1.07H3.79" transform="translate(0 0)"/><path class="cls-11" d="M3.93,1.07,6.31,0h.13L4.06,1.08H3.93" transform="translate(0 0)"/><path class="cls-12" d="M4.06,1.08,6.44,0h.12L4.18,1.1H4.06" transform="translate(0 0)"/><path class="cls-13" d="M4.18,1.1,6.56,0h.11L4.3,1.13H4.18" transform="translate(0 0)"/><path class="cls-14" d="M4.3,1.13,6.67.06h.12L4.41,1.16H4.3" transform="translate(0 0)"/><path class="cls-15" d="M4.41,1.16,6.79.09h.1L4.52,1.19H4.41" transform="translate(0 0)"/><path class="cls-16" d="M4.52,1.19,6.89.13H7L4.63,1.24h0l0,0H4.52" transform="translate(0 0)"/><path class="cls-17" d="M4.63,1.24,7,.17h.08l0,0L4.74,1.29l0,0H4.63" transform="translate(0 0)"/><path class="cls-18" d="M4.74,1.29,7.11.22h0l0,0h0l0,0L4.85,1.34h0l0,0h0" transform="translate(0 0)"/><path class="cls-19" d="M4.85,1.34,7.22.28h0l0,0,0,0h0L5,1.41l0,0h0l0,0,0,0" transform="translate(0 0)"/><path class="cls-21" d="M5,1.41,7.34.34l0,0,0,0,0,0,0,0L5.09,1.49l0,0,0,0,0,0,0,0" transform="translate(0 0)"/><path class="cls-24" d="M5.09,1.49,7.46.42l0,0,0,0,0,0,0,0L5.22,1.6l0,0,0,0,0,0,0,0" transform="translate(0 0)"/><path class="cls-25" d="M5.22,1.6,7.59.53l0,0,0,0,0,0,0,0L5.37,1.73l0,0,0,0,0,0,0,0" transform="translate(0 0)"/><path class="cls-26" d="M5.37,1.73,7.75.66l0,.06,0,.05L7.9.83,8,.89,5.58,2l0-.06,0-.06-.05-.05-.06-.06" transform="translate(0 0)"/><path class="cls-27" d="M5.58,2,8,.89A.76.76,0,0,1,8.06,1l.11.15.09.16a1.09,1.09,0,0,0,.08.15L6,2.56a1.09,1.09,0,0,0-.08-.15l-.09-.16a1.3,1.3,0,0,0-.1-.15A.76.76,0,0,0,5.58,2" transform="translate(0 0)"/><path class="cls-26" d="M6,2.56,8.34,1.49a.64.64,0,0,1,0,.07l0,.06,0,.06a.14.14,0,0,0,0,.07L6.07,2.82l0-.06a.14.14,0,0,0,0-.07l0-.06,0-.07" transform="translate(0 0)"/><path class="cls-25" d="M6.07,2.82,8.44,1.75v0l0,0v.09L6.12,3V3l0,0V2.82" transform="translate(0 0)"/><path class="cls-24" d="M6.12,3,8.49,1.92v.13L6.15,3.12V3" transform="translate(0 0)"/><path class="cls-21" d="M6.15,3.12,8.52,2.05h0v.08L6.17,3.23V3.17h0" transform="translate(0 0)"/><path class="cls-19" d="M6.17,3.23,8.54,2.16v.1L6.18,3.33v-.1" transform="translate(0 0)"/><path class="cls-18" d="M6.18,3.33,8.55,2.26v.1L6.18,3.43v-.1" transform="translate(0 0)"/><path class="cls-17" d="M6.18,3.43,8.55,2.36v.1L6.18,3.53v-.1" transform="translate(0 0)"/><path class="cls-16" d="M6.18,3.53,8.56,2.46v.1L6.18,3.63v-.1" transform="translate(0 0)"/><path class="cls-15" d="M6.18,3.63,8.55,2.56v.11L6.17,3.74V3.63" transform="translate(0 0)"/><path class="cls-14" d="M6.17,3.74,8.54,2.67v.12L6.15,3.86V3.74" transform="translate(0 0)"/><path class="cls-13" d="M6.15,3.86,8.52,2.79v.14L6.13,4V3.86" transform="translate(0 0)"/><path class="cls-12" d="M6.13,4,8.5,2.93v.14l0,0L6.08,4.19V4.1l0,0V4" transform="translate(0 0)"/><path class="cls-11" d="M6.08,4.19,8.45,3.11v.12h0v0h0L6,4.35v0h0v0h0v-.1" transform="translate(0 0)"/><path class="cls-10" d="M6,4.35,8.41,3.27v.07l0,0v0L6,4.48v-.1l0,0" transform="translate(0 0)"/><path class="cls-9" d="M6,4.48,8.36,3.41l0,.09a1,1,0,0,1,0,.1l0,.11-.05.1L5.81,4.89l.05-.11,0-.1s0-.07,0-.1a.42.42,0,0,1,0-.1" transform="translate(0 0)"/><path class="cls-8" d="M5.81,4.89,8.18,3.81,8.12,4l-.07.13L8,4.2l-.06.11L5.57,5.39a1.17,1.17,0,0,0,0-.11l.06-.12L5.74,5l.07-.14" transform="translate(0 0)"/><path class="cls-9" d="M5.57,5.39,7.94,4.31v0l0,0v0l0,0L5.51,5.52v0l0,0v0l0,0" transform="translate(0 0)"/><polyline class="cls-10" points="5.51 5.53 7.88 4.45 7.88 4.46 7.88 4.46 7.88 4.47 7.87 4.47 5.5 5.55 5.5 5.54 5.51 5.54 5.51 5.53 5.51 5.53"/><polyline class="cls-11" points="5.5 5.55 7.87 4.47 7.87 4.48 7.87 4.48 7.87 4.48 7.87 4.49 5.5 5.56 5.5 5.56 5.5 5.56 5.5 5.55 5.5 5.55"/><polyline class="cls-12" points="5.5 5.56 7.87 4.49 7.87 4.49 7.87 4.49 7.87 4.49 7.87 4.49 5.5 5.57 5.5 5.57 5.5 5.57 5.5 5.57 5.5 5.56"/><polyline class="cls-13" points="5.5 5.57 7.87 4.49 7.87 4.49 7.87 4.49 7.87 4.49 7.87 4.49 5.5 5.57 5.5 5.57 5.5 5.57 5.5 5.57 5.5 5.57"/><polyline class="cls-14" points="5.5 5.57 7.87 4.49 7.87 4.49 7.87 4.5 7.87 4.5 7.87 4.5 5.5 5.57 5.5 5.57 5.5 5.57 5.5 5.57 5.5 5.57"/><polyline class="cls-15" points="5.5 5.57 7.87 4.5 7.87 4.5 7.87 4.5 7.87 4.5 7.87 4.5 5.5 5.58 5.5 5.57 5.5 5.57 5.5 5.57 5.5 5.57"/><polyline class="cls-16" points="5.5 5.58 7.87 4.5 7.87 4.5 7.87 4.5 7.87 4.5 7.87 4.5 5.49 5.58 5.5 5.58 5.5 5.58 5.5 5.58 5.5 5.58"/><polyline class="cls-17" points="5.49 5.58 7.87 4.5 7.87 4.5 7.87 4.5 7.87 4.5 7.87 4.5 5.49 5.58 5.49 5.58 5.49 5.58 5.49 5.58 5.49 5.58"/><polyline class="cls-18" points="5.49 5.58 7.87 4.5 7.87 4.5 7.87 4.5 7.87 4.5 7.87 4.5 5.49 5.58 5.49 5.58 5.49 5.58 5.49 5.58 5.49 5.58"/><polyline class="cls-19" points="5.49 5.58 7.87 4.5 7.87 4.5 7.87 4.5 7.87 4.5 7.87 4.5 5.49 5.58 5.49 5.58 5.49 5.58 5.49 5.58 5.49 5.58"/><polyline class="cls-21" points="5.49 5.58 7.87 4.5 7.87 4.5 7.87 4.5 7.87 4.5 7.87 4.5 5.5 5.58 5.49 5.58 5.49 5.58 5.49 5.58 5.49 5.58"/></g></g></g><path class="cls-31" d="M3.59,1.08a2.2,2.2,0,0,1,1,.13,2.4,2.4,0,0,1,.78.49,3,3,0,0,1,.54.7,2.32,2.32,0,0,1,.27.76,1.24,1.24,0,0,1,0,.27,1.31,1.31,0,0,1,0,.28,2.7,2.7,0,0,1,0,.28c0,.1,0,.2-.08.3a2,2,0,0,1-.13.35c-.06.14-.13.28-.19.41s-.12.26-.17.36l-.07.17.06,0L5.7,5.5l.37-.22a3.42,3.42,0,0,1,.47-.23A1.37,1.37,0,0,1,7,4.93a1.88,1.88,0,0,1,.89.13,2.3,2.3,0,0,1,.74.5,2.54,2.54,0,0,1,.53.72,2.77,2.77,0,0,1,.29.82,3,3,0,0,1,0,.67,3.24,3.24,0,0,1-.12.62,2.56,2.56,0,0,1-.27.55,1.86,1.86,0,0,1-.41.43,1.43,1.43,0,0,1-.22.15l-.23.11L8,9.7l-.24,0a2.13,2.13,0,0,1-.44,0,2.35,2.35,0,0,1-.43-.13,3.94,3.94,0,0,1-.46-.23L5.91,9l0,0s0,0,0,0a.13.13,0,0,0,0,.06s0,.06,0,.09A1.23,1.23,0,0,0,6,9.56q.06.19.15.42c.07.15.14.31.23.49s.18.36.29.56l.08.21a.21.21,0,0,1,0,.16s-.06.08-.15.12a2.84,2.84,0,0,1-.39.08c-.18,0-.42.05-.73.08l-.72,0a1.6,1.6,0,0,1-.41,0,.3.3,0,0,1-.19-.09.29.29,0,0,1-.07-.17v-.22c0-.21.07-.41.09-.59a5,5,0,0,0,.06-.51c0-.15,0-.3,0-.43a3.18,3.18,0,0,0,0-.34.29.29,0,0,0,0-.09.14.14,0,0,0,0-.07l0,0s0,0,0,0-.26.29-.39.41a3.25,3.25,0,0,1-.37.3,1.9,1.9,0,0,1-.37.2,1.43,1.43,0,0,1-.42.09A1.94,1.94,0,0,1,1.67,10a2.11,2.11,0,0,1-.75-.47,2.63,2.63,0,0,1-.56-.72A3,3,0,0,1,0,8,2.78,2.78,0,0,1,0,7a2.41,2.41,0,0,1,.28-.82,1.87,1.87,0,0,1,.55-.6,1.59,1.59,0,0,1,.75-.28,1.77,1.77,0,0,1,.49,0,4.94,4.94,0,0,1,.55.15l.43.16.16.08,0,0s0,0,0,0A.35.35,0,0,0,3.2,5.6l-.11-.11-.15-.16a6.31,6.31,0,0,1-.45-.48,3.88,3.88,0,0,1-.33-.44A3,3,0,0,1,1.94,4a2.13,2.13,0,0,1-.13-.45,2.46,2.46,0,0,1,0-.9,2,2,0,0,1,.34-.75,1.86,1.86,0,0,1,.61-.54A1.83,1.83,0,0,1,3.59,1.08Z" transform="translate(0 0)"/><g class="cls-2"><g class="cls-32"><g class="cls-2"><path class="cls-4" d="M6.41,5.1,8.78,4l.06,0,.05,0L9,4l.05,0L6.63,5,6.57,5l-.05,0-.06,0,0,0" transform="translate(0 0)"/><path class="cls-6" d="M6.63,5,9,3.94l.05,0,0,0h.1L6.83,5h0l0,0L6.68,5h0" transform="translate(0 0)"/><path class="cls-7" d="M6.83,5,9.2,3.88h.11L6.93,4.93h-.1" transform="translate(0 0)"/><path class="cls-8" d="M6.93,4.93,9.31,3.86H9.4L7,4.92h-.1" transform="translate(0 0)"/><path class="cls-9" d="M7,4.92,9.4,3.85h.13L7.16,4.92H7" transform="translate(0 0)"/><path class="cls-10" d="M7.16,4.92,9.53,3.84h.12L7.28,4.92H7.16" transform="translate(0 0)"/><path class="cls-11" d="M7.28,4.92,9.65,3.85h.11L7.39,4.93H7.28" transform="translate(0 0)"/><path class="cls-12" d="M7.39,4.93,9.76,3.86h.11L7.5,5H7.39" transform="translate(0 0)"/><path class="cls-13" d="M7.5,5,9.87,3.87H10L7.6,5H7.5" transform="translate(0 0)"/><path class="cls-14" d="M7.6,5,10,3.9h.1L7.7,5H7.6" transform="translate(0 0)"/><path class="cls-15" d="M7.7,5l2.37-1.08h.1L7.8,5H7.7" transform="translate(0 0)"/><path class="cls-16" d="M7.8,5,10.17,4h.1L7.9,5.07H7.8" transform="translate(0 0)"/><path class="cls-17" d="M7.9,5.07,10.27,4h0l0,0h0L8,5.12l0,0H7.9" transform="translate(0 0)"/><path class="cls-18" d="M8,5.12,10.37,4h0l0,0h.06L8.11,5.17h0l0,0H8" transform="translate(0 0)"/><path class="cls-19" d="M8.11,5.17l2.37-1.08,0,0h0l0,0,0,0L8.21,5.23h0l0,0h0l0,0" transform="translate(0 0)"/><path class="cls-21" d="M8.21,5.23l2.37-1.07,0,0,0,0,0,0,0,0L8.33,5.31l0,0,0,0,0,0,0,0" transform="translate(0 0)"/><path class="cls-24" d="M8.33,5.31,10.7,4.24l0,0,0,0,0,0,0,0L8.46,5.41l0,0,0,0,0,0,0,0" transform="translate(0 0)"/><path class="cls-25" d="M8.46,5.41l2.37-1.07,0,0,0,0,0,0,0,0L8.61,5.55l0,0,0,0,0,0,0,0" transform="translate(0 0)"/><path class="cls-26" d="M8.61,5.55,11,4.47l0,0,.06.06.05.06,0,.06L8.82,5.78l-.05-.06,0-.06L8.67,5.6l-.06,0" transform="translate(0 0)"/><path class="cls-27" d="M8.82,5.78,11.19,4.7l.12.15.1.15.09.16.09.16L9.22,6.4l-.09-.16A1.29,1.29,0,0,0,9,6.08l-.1-.15-.12-.15" transform="translate(0 0)"/><path class="cls-26" d="M9.22,6.4l2.37-1.08,0,.08,0,.07,0,.07a.24.24,0,0,1,0,.08L9.34,6.7l0-.08,0-.07,0-.07,0-.08" transform="translate(0 0)"/><path class="cls-25" d="M9.34,6.7,11.7,5.62l0,0,0,0v.1L9.4,6.9l0-.05v0l0,0v0" transform="translate(0 0)"/><path class="cls-24" d="M9.4,6.9l2.36-1.08V6L9.43,7.05V6.9" transform="translate(0 0)"/><path class="cls-21" d="M9.43,7.05,11.8,6h0V6h0v.11L9.46,7.21V7.1h0v0" transform="translate(0 0)"/><path class="cls-19" d="M9.46,7.21l2.37-1.08v.15L9.47,7.36V7.21" transform="translate(0 0)"/><path class="cls-18" d="M9.47,7.36l2.37-1.08v.14L9.48,7.5V7.36" transform="translate(0 0)"/><path class="cls-17" d="M9.48,7.5l2.37-1.08v.13L9.48,7.63V7.5" transform="translate(0 0)"/><path class="cls-16" d="M9.48,7.63l2.37-1.08v.13L9.48,7.76V7.63" transform="translate(0 0)"/><path class="cls-15" d="M9.48,7.76l2.37-1.08v.13L9.47,7.89V7.76" transform="translate(0 0)"/><path class="cls-14" d="M9.47,7.89l2.36-1.08v.12L9.45,8V7.89" transform="translate(0 0)"/><path class="cls-13" d="M9.45,8l2.37-1.09v.13L9.43,8.14V8" transform="translate(0 0)"/><path class="cls-12" d="M9.43,8.14l2.36-1.08v.12L9.4,8.26V8.14" transform="translate(0 0)"/><path class="cls-11" d="M9.4,8.26l2.36-1.08V7.3L9.36,8.39V8.26" transform="translate(0 0)"/><path class="cls-10" d="M9.36,8.39,11.73,7.3v.07l0,0v0L9.32,8.51V8.39" transform="translate(0 0)"/><path class="cls-9" d="M9.32,8.51l2.36-1.08v.06l0,0v0L9.26,8.64v0l0,0v0l0,0" transform="translate(0 0)"/><path class="cls-8" d="M9.26,8.64l2.37-1.08,0,0,0,0v0l0,0L9.19,8.78l0,0,0,0v0l0,0" transform="translate(0 0)"/><path class="cls-7" d="M9.19,8.78l2.37-1.09,0,0,0,0,0,0,0,0L9.1,8.92l0,0,0,0,0,0,0,0" transform="translate(0 0)"/><path class="cls-6" d="M9.1,8.92l2.37-1.08,0,0,0,0,0,0,0,0L9,9.09l0,0L9,9l0,0,0-.05" transform="translate(0 0)"/><path class="cls-4" d="M9,9.09,11.34,8a.46.46,0,0,1-.07.07.23.23,0,0,1-.07.07l-.07.07-.08.07L11,8.35l-.09.06-.09.05-.09,0L8.33,9.59l.09-.05.08,0,.09-.05.09-.07.08-.06.08-.07.07-.07L9,9.09" transform="translate(0 0)"/></g></g></g></g></g></g></svg>