<svg xmlns="http://www.w3.org/2000/svg" xmlns:xlink="http://www.w3.org/1999/xlink" viewBox="0 0 11.9 11.58"><defs><style>.cls-1{fill:none;}.cls-2{isolation:isolate;}.cls-3{clip-path:url(#clip-path);}.cls-4{fill:#dbdbdb;}.cls-5{clip-path:url(#clip-path-2);}.cls-6{fill:#8a8a8a;}.cls-7{fill:#aeaeae;}</style><clipPath id="clip-path"><path class="cls-1" d="M3.81,1.08,6.19,0,11.9,4.85,9.52,5.93Z"/></clipPath><clipPath id="clip-path-2"><path class="cls-1" d="M9.52,5.93,11.9,4.85C10.61,6.74,9.33,8.61,8.05,10.5L5.67,11.58C7,9.69,8.23,7.82,9.52,5.93Z"/></clipPath></defs><title>d</title><g id="Layer_2" data-name="Layer 2"><g id="Layer_1-2" data-name="Layer 1"><g class="cls-2"><g class="cls-2"><g class="cls-3"><g class="cls-2"><path class="cls-4" d="M3.81,1.08,6.19,0,11.9,4.85,9.52,5.93,3.81,1.08"/></g></g></g><g class="cls-2"><g class="cls-5"><g class="cls-2"><path class="cls-6" d="M9.52,5.93,11.9,4.85C10.61,6.74,9.33,8.61,8.05,10.5L5.67,11.58C7,9.69,8.23,7.82,9.52,5.93"/></g></g></g><path class="cls-7" d="M3.81,1.08,9.52,5.93C8.23,7.82,7,9.69,5.67,11.58L0,6.76Z"/></g></g></g></svg>